<mxfile host="app.diagrams.net" agent="Mozilla/5.0 (Windows NT 10.0; Win64; x64) AppleWebKit/537.36 (KHTML, like Gecko) Chrome/128.0.0.0 Safari/537.36 OPR/114.0.0.0" version="24.8.6">
  <diagram name="Страница — 1" id="lXoeM55HSXFI2naxmmLe">
    <mxGraphModel dx="2466" dy="913" grid="1" gridSize="10" guides="1" tooltips="1" connect="1" arrows="1" fold="1" page="1" pageScale="1" pageWidth="827" pageHeight="1169" math="0" shadow="0">
      <root>
        <mxCell id="0" />
        <mxCell id="1" parent="0" />
        <mxCell id="b5p1jlufVg6Kx3kPIUmd-1" value="&lt;div style=&quot;color: rgb(204, 204, 204); background-color: rgb(31, 31, 31); font-family: Consolas, &amp;quot;Courier New&amp;quot;, monospace; font-weight: normal; line-height: 19px; white-space: pre;&quot;&gt;&lt;span style=&quot;color: rgb(78, 201, 176);&quot;&gt;&lt;font style=&quot;font-size: 8px;&quot;&gt;PhoneValidationError&lt;/font&gt;&lt;/span&gt;&lt;/div&gt;" style="swimlane;fontStyle=1;align=center;verticalAlign=top;childLayout=stackLayout;horizontal=1;startSize=26;horizontalStack=0;resizeParent=1;resizeParentMax=0;resizeLast=0;collapsible=1;marginBottom=0;whiteSpace=wrap;html=1;" parent="1" vertex="1">
          <mxGeometry x="1130" y="610" width="200" height="92" as="geometry" />
        </mxCell>
        <mxCell id="b5p1jlufVg6Kx3kPIUmd-49" value="&lt;span style=&quot;text-wrap: nowrap;&quot;&gt;+ message: str&lt;/span&gt;" style="text;html=1;align=left;verticalAlign=middle;whiteSpace=wrap;rounded=0;" parent="b5p1jlufVg6Kx3kPIUmd-1" vertex="1">
          <mxGeometry y="26" width="200" height="24" as="geometry" />
        </mxCell>
        <mxCell id="b5p1jlufVg6Kx3kPIUmd-3" value="" style="line;strokeWidth=1;fillColor=none;align=left;verticalAlign=middle;spacingTop=-1;spacingLeft=3;spacingRight=3;rotatable=0;labelPosition=right;points=[];portConstraint=eastwest;strokeColor=inherit;" parent="b5p1jlufVg6Kx3kPIUmd-1" vertex="1">
          <mxGeometry y="50" width="200" height="10" as="geometry" />
        </mxCell>
        <mxCell id="b5p1jlufVg6Kx3kPIUmd-4" value="+ __init__(self, message: str): void&amp;nbsp;" style="text;strokeColor=none;fillColor=none;align=left;verticalAlign=top;spacingLeft=4;spacingRight=4;overflow=hidden;rotatable=0;points=[[0,0.5],[1,0.5]];portConstraint=eastwest;whiteSpace=wrap;html=1;" parent="b5p1jlufVg6Kx3kPIUmd-1" vertex="1">
          <mxGeometry y="60" width="200" height="32" as="geometry" />
        </mxCell>
        <mxCell id="b5p1jlufVg6Kx3kPIUmd-5" value="&lt;div style=&quot;color: rgb(204, 204, 204); background-color: rgb(31, 31, 31); font-family: Consolas, &amp;quot;Courier New&amp;quot;, monospace; font-weight: normal; line-height: 19px; white-space: pre;&quot;&gt;&lt;span style=&quot;color: rgb(78, 201, 176);&quot;&gt;&lt;font style=&quot;font-size: 8px;&quot;&gt;NameValidationError&lt;/font&gt;&lt;/span&gt;&lt;/div&gt;" style="swimlane;fontStyle=1;align=center;verticalAlign=top;childLayout=stackLayout;horizontal=1;startSize=26;horizontalStack=0;resizeParent=1;resizeParentMax=0;resizeLast=0;collapsible=1;marginBottom=0;whiteSpace=wrap;html=1;" parent="1" vertex="1">
          <mxGeometry x="1130" y="910" width="200" height="88" as="geometry" />
        </mxCell>
        <mxCell id="b5p1jlufVg6Kx3kPIUmd-48" value="+ message: str" style="text;html=1;align=left;verticalAlign=middle;resizable=0;points=[];autosize=1;strokeColor=none;fillColor=none;" parent="b5p1jlufVg6Kx3kPIUmd-5" vertex="1">
          <mxGeometry y="26" width="200" height="30" as="geometry" />
        </mxCell>
        <mxCell id="b5p1jlufVg6Kx3kPIUmd-7" value="" style="line;strokeWidth=1;fillColor=none;align=left;verticalAlign=middle;spacingTop=-1;spacingLeft=3;spacingRight=3;rotatable=0;labelPosition=right;points=[];portConstraint=eastwest;strokeColor=inherit;" parent="b5p1jlufVg6Kx3kPIUmd-5" vertex="1">
          <mxGeometry y="56" width="200" height="6" as="geometry" />
        </mxCell>
        <mxCell id="b5p1jlufVg6Kx3kPIUmd-8" value="+ __init__(self, message: str): void&amp;nbsp;" style="text;strokeColor=none;fillColor=none;align=left;verticalAlign=top;spacingLeft=4;spacingRight=4;overflow=hidden;rotatable=0;points=[[0,0.5],[1,0.5]];portConstraint=eastwest;whiteSpace=wrap;html=1;" parent="b5p1jlufVg6Kx3kPIUmd-5" vertex="1">
          <mxGeometry y="62" width="200" height="26" as="geometry" />
        </mxCell>
        <mxCell id="b5p1jlufVg6Kx3kPIUmd-9" value="&lt;div style=&quot;color: rgb(204, 204, 204); background-color: rgb(31, 31, 31); font-family: Consolas, &amp;quot;Courier New&amp;quot;, monospace; font-weight: normal; line-height: 19px; white-space: pre;&quot;&gt;&lt;span style=&quot;color: rgb(78, 201, 176);&quot;&gt;&lt;font style=&quot;font-size: 8px;&quot;&gt;BirthdayValidationError&lt;/font&gt;&lt;/span&gt;&lt;/div&gt;" style="swimlane;fontStyle=1;align=center;verticalAlign=top;childLayout=stackLayout;horizontal=1;startSize=26;horizontalStack=0;resizeParent=1;resizeParentMax=0;resizeLast=0;collapsible=1;marginBottom=0;whiteSpace=wrap;html=1;" parent="1" vertex="1">
          <mxGeometry x="1130" y="810" width="200" height="90" as="geometry" />
        </mxCell>
        <mxCell id="b5p1jlufVg6Kx3kPIUmd-50" value="&lt;span style=&quot;text-wrap: nowrap;&quot;&gt;+ message: str&lt;/span&gt;" style="text;html=1;align=left;verticalAlign=middle;whiteSpace=wrap;rounded=0;" parent="b5p1jlufVg6Kx3kPIUmd-9" vertex="1">
          <mxGeometry y="26" width="200" height="30" as="geometry" />
        </mxCell>
        <mxCell id="b5p1jlufVg6Kx3kPIUmd-11" value="" style="line;strokeWidth=1;fillColor=none;align=left;verticalAlign=middle;spacingTop=-1;spacingLeft=3;spacingRight=3;rotatable=0;labelPosition=right;points=[];portConstraint=eastwest;strokeColor=inherit;" parent="b5p1jlufVg6Kx3kPIUmd-9" vertex="1">
          <mxGeometry y="56" width="200" height="8" as="geometry" />
        </mxCell>
        <mxCell id="b5p1jlufVg6Kx3kPIUmd-12" value="+ __init__(self, message: str): void&amp;nbsp;" style="text;strokeColor=none;fillColor=none;align=left;verticalAlign=top;spacingLeft=4;spacingRight=4;overflow=hidden;rotatable=0;points=[[0,0.5],[1,0.5]];portConstraint=eastwest;whiteSpace=wrap;html=1;" parent="b5p1jlufVg6Kx3kPIUmd-9" vertex="1">
          <mxGeometry y="64" width="200" height="26" as="geometry" />
        </mxCell>
        <mxCell id="b5p1jlufVg6Kx3kPIUmd-13" value="&lt;div style=&quot;color: rgb(204, 204, 204); background-color: rgb(31, 31, 31); font-family: Consolas, &amp;quot;Courier New&amp;quot;, monospace; font-weight: normal; line-height: 19px; white-space: pre;&quot;&gt;&lt;span style=&quot;color: rgb(78, 201, 176);&quot;&gt;&lt;font style=&quot;font-size: 8px;&quot;&gt;ItemNotFoundError&lt;/font&gt;&lt;/span&gt;&lt;/div&gt;" style="swimlane;fontStyle=1;align=center;verticalAlign=top;childLayout=stackLayout;horizontal=1;startSize=26;horizontalStack=0;resizeParent=1;resizeParentMax=0;resizeLast=0;collapsible=1;marginBottom=0;whiteSpace=wrap;html=1;" parent="1" vertex="1">
          <mxGeometry x="1130" y="710" width="200" height="90" as="geometry" />
        </mxCell>
        <mxCell id="b5p1jlufVg6Kx3kPIUmd-51" value="&lt;span style=&quot;text-wrap: nowrap;&quot;&gt;+ message: str&lt;/span&gt;" style="text;html=1;align=left;verticalAlign=middle;whiteSpace=wrap;rounded=0;" parent="b5p1jlufVg6Kx3kPIUmd-13" vertex="1">
          <mxGeometry y="26" width="200" height="30" as="geometry" />
        </mxCell>
        <mxCell id="b5p1jlufVg6Kx3kPIUmd-15" value="" style="line;strokeWidth=1;fillColor=none;align=left;verticalAlign=middle;spacingTop=-1;spacingLeft=3;spacingRight=3;rotatable=0;labelPosition=right;points=[];portConstraint=eastwest;strokeColor=inherit;" parent="b5p1jlufVg6Kx3kPIUmd-13" vertex="1">
          <mxGeometry y="56" width="200" height="8" as="geometry" />
        </mxCell>
        <mxCell id="b5p1jlufVg6Kx3kPIUmd-16" value="+ __init__(self, message: str): void&amp;nbsp;" style="text;strokeColor=none;fillColor=none;align=left;verticalAlign=top;spacingLeft=4;spacingRight=4;overflow=hidden;rotatable=0;points=[[0,0.5],[1,0.5]];portConstraint=eastwest;whiteSpace=wrap;html=1;" parent="b5p1jlufVg6Kx3kPIUmd-13" vertex="1">
          <mxGeometry y="64" width="200" height="26" as="geometry" />
        </mxCell>
        <mxCell id="b5p1jlufVg6Kx3kPIUmd-17" value="&lt;div style=&quot;color: rgb(204, 204, 204); background-color: rgb(31, 31, 31); font-family: Consolas, &amp;quot;Courier New&amp;quot;, monospace; font-weight: normal; line-height: 19px; white-space: pre;&quot;&gt;&lt;span style=&quot;color: rgb(78, 201, 176);&quot;&gt;&lt;font style=&quot;font-size: 8px;&quot;&gt;&lt;i&gt;Field&lt;/i&gt;&lt;/font&gt;&lt;/span&gt;&lt;/div&gt;" style="swimlane;fontStyle=1;align=center;verticalAlign=top;childLayout=stackLayout;horizontal=1;startSize=26;horizontalStack=0;resizeParent=1;resizeParentMax=0;resizeLast=0;collapsible=1;marginBottom=0;whiteSpace=wrap;html=1;" parent="1" vertex="1">
          <mxGeometry x="1290" y="30" width="180" height="100" as="geometry" />
        </mxCell>
        <mxCell id="b5p1jlufVg6Kx3kPIUmd-52" value="&lt;span style=&quot;text-wrap: nowrap;&quot;&gt;+ value: str&lt;/span&gt;" style="text;html=1;align=left;verticalAlign=middle;whiteSpace=wrap;rounded=0;" parent="b5p1jlufVg6Kx3kPIUmd-17" vertex="1">
          <mxGeometry y="26" width="180" height="30" as="geometry" />
        </mxCell>
        <mxCell id="b5p1jlufVg6Kx3kPIUmd-19" value="" style="line;strokeWidth=1;fillColor=none;align=left;verticalAlign=middle;spacingTop=-1;spacingLeft=3;spacingRight=3;rotatable=0;labelPosition=right;points=[];portConstraint=eastwest;strokeColor=inherit;" parent="b5p1jlufVg6Kx3kPIUmd-17" vertex="1">
          <mxGeometry y="56" width="180" height="8" as="geometry" />
        </mxCell>
        <mxCell id="b5p1jlufVg6Kx3kPIUmd-20" value="+ __init__(self, value: str): void&lt;div&gt;+ __str__(self): str&lt;/div&gt;" style="text;strokeColor=none;fillColor=none;align=left;verticalAlign=top;spacingLeft=4;spacingRight=4;overflow=hidden;rotatable=0;points=[[0,0.5],[1,0.5]];portConstraint=eastwest;whiteSpace=wrap;html=1;" parent="b5p1jlufVg6Kx3kPIUmd-17" vertex="1">
          <mxGeometry y="64" width="180" height="36" as="geometry" />
        </mxCell>
        <mxCell id="b5p1jlufVg6Kx3kPIUmd-21" value="&lt;div style=&quot;color: rgb(204, 204, 204); background-color: rgb(31, 31, 31); font-family: Consolas, &amp;quot;Courier New&amp;quot;, monospace; font-weight: normal; line-height: 19px; white-space: pre;&quot;&gt;&lt;span style=&quot;color: rgb(78, 201, 176);&quot;&gt;&lt;font style=&quot;font-size: 8px;&quot;&gt;Name&lt;/font&gt;&lt;/span&gt;&lt;/div&gt;" style="swimlane;fontStyle=1;align=center;verticalAlign=top;childLayout=stackLayout;horizontal=1;startSize=26;horizontalStack=0;resizeParent=1;resizeParentMax=0;resizeLast=0;collapsible=1;marginBottom=0;whiteSpace=wrap;html=1;" parent="1" vertex="1">
          <mxGeometry x="1140" y="410" width="180" height="100" as="geometry" />
        </mxCell>
        <mxCell id="b5p1jlufVg6Kx3kPIUmd-54" value="&lt;span style=&quot;text-wrap: nowrap;&quot;&gt;+ value: str&lt;/span&gt;" style="text;html=1;align=left;verticalAlign=middle;whiteSpace=wrap;rounded=0;" parent="b5p1jlufVg6Kx3kPIUmd-21" vertex="1">
          <mxGeometry y="26" width="180" height="30" as="geometry" />
        </mxCell>
        <mxCell id="b5p1jlufVg6Kx3kPIUmd-23" value="" style="line;strokeWidth=1;fillColor=none;align=left;verticalAlign=middle;spacingTop=-1;spacingLeft=3;spacingRight=3;rotatable=0;labelPosition=right;points=[];portConstraint=eastwest;strokeColor=inherit;" parent="b5p1jlufVg6Kx3kPIUmd-21" vertex="1">
          <mxGeometry y="56" width="180" height="8" as="geometry" />
        </mxCell>
        <mxCell id="b5p1jlufVg6Kx3kPIUmd-24" value="+ __init__(self, value: str): void&lt;div&gt;+ validate(value: str): bool&lt;/div&gt;" style="text;strokeColor=none;fillColor=none;align=left;verticalAlign=top;spacingLeft=4;spacingRight=4;overflow=hidden;rotatable=0;points=[[0,0.5],[1,0.5]];portConstraint=eastwest;whiteSpace=wrap;html=1;" parent="b5p1jlufVg6Kx3kPIUmd-21" vertex="1">
          <mxGeometry y="64" width="180" height="36" as="geometry" />
        </mxCell>
        <mxCell id="b5p1jlufVg6Kx3kPIUmd-25" value="&lt;div style=&quot;color: rgb(204, 204, 204); background-color: rgb(31, 31, 31); font-family: Consolas, &amp;quot;Courier New&amp;quot;, monospace; font-weight: normal; line-height: 19px; white-space: pre;&quot;&gt;&lt;span style=&quot;color: rgb(78, 201, 176);&quot;&gt;&lt;font style=&quot;font-size: 8px;&quot;&gt;Phone&lt;/font&gt;&lt;/span&gt;&lt;/div&gt;" style="swimlane;fontStyle=1;align=center;verticalAlign=top;childLayout=stackLayout;horizontal=1;startSize=26;horizontalStack=0;resizeParent=1;resizeParentMax=0;resizeLast=0;collapsible=1;marginBottom=0;whiteSpace=wrap;html=1;" parent="1" vertex="1">
          <mxGeometry x="1130" y="150" width="160" height="124" as="geometry" />
        </mxCell>
        <mxCell id="b5p1jlufVg6Kx3kPIUmd-55" value="&lt;span style=&quot;text-wrap: nowrap;&quot;&gt;+ value: str&lt;/span&gt;" style="text;html=1;align=left;verticalAlign=middle;whiteSpace=wrap;rounded=0;" parent="b5p1jlufVg6Kx3kPIUmd-25" vertex="1">
          <mxGeometry y="26" width="160" height="30" as="geometry" />
        </mxCell>
        <mxCell id="b5p1jlufVg6Kx3kPIUmd-27" value="" style="line;strokeWidth=1;fillColor=none;align=left;verticalAlign=middle;spacingTop=-1;spacingLeft=3;spacingRight=3;rotatable=0;labelPosition=right;points=[];portConstraint=eastwest;strokeColor=inherit;" parent="b5p1jlufVg6Kx3kPIUmd-25" vertex="1">
          <mxGeometry y="56" width="160" height="8" as="geometry" />
        </mxCell>
        <mxCell id="b5p1jlufVg6Kx3kPIUmd-28" value="+ __init__(self, value: str): void&lt;div&gt;+ validate(value: str): bool&lt;br&gt;&lt;/div&gt;" style="text;strokeColor=none;fillColor=none;align=left;verticalAlign=top;spacingLeft=4;spacingRight=4;overflow=hidden;rotatable=0;points=[[0,0.5],[1,0.5]];portConstraint=eastwest;whiteSpace=wrap;html=1;" parent="b5p1jlufVg6Kx3kPIUmd-25" vertex="1">
          <mxGeometry y="64" width="160" height="60" as="geometry" />
        </mxCell>
        <mxCell id="b5p1jlufVg6Kx3kPIUmd-29" value="&lt;div style=&quot;color: rgb(204, 204, 204); background-color: rgb(31, 31, 31); font-family: Consolas, &amp;quot;Courier New&amp;quot;, monospace; font-weight: normal; line-height: 19px; white-space: pre;&quot;&gt;&lt;span style=&quot;color: rgb(78, 201, 176);&quot;&gt;&lt;font style=&quot;font-size: 8px;&quot;&gt;Birthday&lt;/font&gt;&lt;/span&gt;&lt;/div&gt;" style="swimlane;fontStyle=1;align=center;verticalAlign=top;childLayout=stackLayout;horizontal=1;startSize=26;horizontalStack=0;resizeParent=1;resizeParentMax=0;resizeLast=0;collapsible=1;marginBottom=0;whiteSpace=wrap;html=1;" parent="1" vertex="1">
          <mxGeometry x="1130" y="290" width="190" height="100" as="geometry" />
        </mxCell>
        <mxCell id="b5p1jlufVg6Kx3kPIUmd-56" value="&lt;span style=&quot;text-wrap: nowrap;&quot;&gt;+ value: str&lt;/span&gt;" style="text;html=1;align=left;verticalAlign=middle;whiteSpace=wrap;rounded=0;" parent="b5p1jlufVg6Kx3kPIUmd-29" vertex="1">
          <mxGeometry y="26" width="190" height="30" as="geometry" />
        </mxCell>
        <mxCell id="b5p1jlufVg6Kx3kPIUmd-31" value="" style="line;strokeWidth=1;fillColor=none;align=left;verticalAlign=middle;spacingTop=-1;spacingLeft=3;spacingRight=3;rotatable=0;labelPosition=right;points=[];portConstraint=eastwest;strokeColor=inherit;" parent="b5p1jlufVg6Kx3kPIUmd-29" vertex="1">
          <mxGeometry y="56" width="190" height="8" as="geometry" />
        </mxCell>
        <mxCell id="b5p1jlufVg6Kx3kPIUmd-32" value="+ __init__(self, value: str): void&lt;div&gt;+ str_to_datetime(value: str): bool&lt;/div&gt;" style="text;strokeColor=none;fillColor=none;align=left;verticalAlign=top;spacingLeft=4;spacingRight=4;overflow=hidden;rotatable=0;points=[[0,0.5],[1,0.5]];portConstraint=eastwest;whiteSpace=wrap;html=1;" parent="b5p1jlufVg6Kx3kPIUmd-29" vertex="1">
          <mxGeometry y="64" width="190" height="36" as="geometry" />
        </mxCell>
        <mxCell id="b5p1jlufVg6Kx3kPIUmd-33" value="&lt;div style=&quot;color: rgb(204, 204, 204); background-color: rgb(31, 31, 31); font-family: Consolas, &amp;quot;Courier New&amp;quot;, monospace; font-weight: normal; line-height: 19px; white-space: pre;&quot;&gt;&lt;span style=&quot;color: rgb(78, 201, 176);&quot;&gt;&lt;font style=&quot;font-size: 8px;&quot;&gt;Record&lt;/font&gt;&lt;/span&gt;&lt;/div&gt;" style="swimlane;fontStyle=1;align=center;verticalAlign=top;childLayout=stackLayout;horizontal=1;startSize=26;horizontalStack=0;resizeParent=1;resizeParentMax=0;resizeLast=0;collapsible=1;marginBottom=0;whiteSpace=wrap;html=1;" parent="1" vertex="1">
          <mxGeometry x="540" y="610" width="300" height="190" as="geometry" />
        </mxCell>
        <mxCell id="b5p1jlufVg6Kx3kPIUmd-34" value="&lt;span style=&quot;text-wrap: nowrap;&quot;&gt;+ name: Name&lt;/span&gt;&lt;div&gt;&lt;span style=&quot;text-wrap: nowrap;&quot;&gt;+ phones: List[Phone]&lt;/span&gt;&lt;span style=&quot;text-wrap: nowrap;&quot;&gt;&lt;br&gt;&lt;/span&gt;&lt;/div&gt;&lt;div&gt;&lt;span style=&quot;text-wrap: nowrap;&quot;&gt;+ birthday: Optional[Birthday]&lt;/span&gt;&lt;span style=&quot;text-wrap: nowrap;&quot;&gt;&lt;br&gt;&lt;/span&gt;&lt;/div&gt;" style="text;strokeColor=none;fillColor=none;align=left;verticalAlign=top;spacingLeft=4;spacingRight=4;overflow=hidden;rotatable=0;points=[[0,0.5],[1,0.5]];portConstraint=eastwest;whiteSpace=wrap;html=1;" parent="b5p1jlufVg6Kx3kPIUmd-33" vertex="1">
          <mxGeometry y="26" width="300" height="54" as="geometry" />
        </mxCell>
        <mxCell id="b5p1jlufVg6Kx3kPIUmd-35" value="" style="line;strokeWidth=1;fillColor=none;align=left;verticalAlign=middle;spacingTop=-1;spacingLeft=3;spacingRight=3;rotatable=0;labelPosition=right;points=[];portConstraint=eastwest;strokeColor=inherit;" parent="b5p1jlufVg6Kx3kPIUmd-33" vertex="1">
          <mxGeometry y="80" width="300" height="8" as="geometry" />
        </mxCell>
        <mxCell id="b5p1jlufVg6Kx3kPIUmd-36" value="+ add_birthday(self, string: str): void&lt;div&gt;+ add_phone(self, value: str): void&lt;/div&gt;&lt;div&gt;+ remove_phone(self, value: str): void&lt;/div&gt;&lt;div&gt;+ find_phone(self, value: str): Optional[Phone]&lt;/div&gt;&lt;div&gt;+ edit_phone(self, old_value: str, new_value: str): void&lt;/div&gt;&lt;div&gt;+ __str__(self): str&lt;/div&gt;" style="text;strokeColor=none;fillColor=none;align=left;verticalAlign=top;spacingLeft=4;spacingRight=4;overflow=hidden;rotatable=0;points=[[0,0.5],[1,0.5]];portConstraint=eastwest;whiteSpace=wrap;html=1;" parent="b5p1jlufVg6Kx3kPIUmd-33" vertex="1">
          <mxGeometry y="88" width="300" height="102" as="geometry" />
        </mxCell>
        <mxCell id="b5p1jlufVg6Kx3kPIUmd-37" value="&lt;div style=&quot;color: rgb(204, 204, 204); background-color: rgb(31, 31, 31); font-family: Consolas, &amp;quot;Courier New&amp;quot;, monospace; font-weight: normal; line-height: 19px; white-space: pre;&quot;&gt;&lt;span style=&quot;color: rgb(78, 201, 176);&quot;&gt;&lt;font style=&quot;font-size: 8px;&quot;&gt;AddressBook&lt;/font&gt;&lt;/span&gt;&lt;/div&gt;" style="swimlane;fontStyle=1;align=center;verticalAlign=top;childLayout=stackLayout;horizontal=1;startSize=26;horizontalStack=0;resizeParent=1;resizeParentMax=0;resizeLast=0;collapsible=1;marginBottom=0;whiteSpace=wrap;html=1;" parent="1" vertex="1">
          <mxGeometry x="510" y="380" width="320" height="180" as="geometry" />
        </mxCell>
        <mxCell id="b5p1jlufVg6Kx3kPIUmd-38" value="+ data: Dict[str, Record]" style="text;strokeColor=none;fillColor=none;align=left;verticalAlign=top;spacingLeft=4;spacingRight=4;overflow=hidden;rotatable=0;points=[[0,0.5],[1,0.5]];portConstraint=eastwest;whiteSpace=wrap;html=1;" parent="b5p1jlufVg6Kx3kPIUmd-37" vertex="1">
          <mxGeometry y="26" width="320" height="24" as="geometry" />
        </mxCell>
        <mxCell id="b5p1jlufVg6Kx3kPIUmd-39" value="" style="line;strokeWidth=1;fillColor=none;align=left;verticalAlign=middle;spacingTop=-1;spacingLeft=3;spacingRight=3;rotatable=0;labelPosition=right;points=[];portConstraint=eastwest;strokeColor=inherit;" parent="b5p1jlufVg6Kx3kPIUmd-37" vertex="1">
          <mxGeometry y="50" width="320" height="8" as="geometry" />
        </mxCell>
        <mxCell id="b5p1jlufVg6Kx3kPIUmd-40" value="+ get_upcoming_birthdays(self): List[Dict[str, datetime]]&lt;div&gt;+ add_record(self, record: Record): void&lt;/div&gt;&lt;div&gt;+ find(self, name: str): Optional[Record]&lt;/div&gt;&lt;div&gt;+ delete(self, name: str): void&lt;/div&gt;&lt;div&gt;+ save_data(self, filename: str): void&lt;/div&gt;&lt;div&gt;+ load_data(cls,&amp;nbsp;&lt;span style=&quot;background-color: initial;&quot;&gt;filename: str): AddressBook&lt;/span&gt;&lt;/div&gt;&lt;div&gt;&lt;span style=&quot;background-color: initial;&quot;&gt;+ __str__(self): str&lt;/span&gt;&lt;/div&gt;" style="text;strokeColor=none;fillColor=none;align=left;verticalAlign=top;spacingLeft=4;spacingRight=4;overflow=hidden;rotatable=0;points=[[0,0.5],[1,0.5]];portConstraint=eastwest;whiteSpace=wrap;html=1;" parent="b5p1jlufVg6Kx3kPIUmd-37" vertex="1">
          <mxGeometry y="58" width="320" height="122" as="geometry" />
        </mxCell>
        <mxCell id="b5p1jlufVg6Kx3kPIUmd-58" value="Exception" style="swimlane;fontStyle=1;align=center;verticalAlign=top;childLayout=stackLayout;horizontal=1;startSize=26;horizontalStack=0;resizeParent=1;resizeParentMax=0;resizeLast=0;collapsible=1;marginBottom=0;whiteSpace=wrap;html=1;" parent="1" vertex="1">
          <mxGeometry x="1350" y="540" width="96" height="34" as="geometry" />
        </mxCell>
        <mxCell id="b5p1jlufVg6Kx3kPIUmd-60" value="" style="line;strokeWidth=1;fillColor=none;align=left;verticalAlign=middle;spacingTop=-1;spacingLeft=3;spacingRight=3;rotatable=0;labelPosition=right;points=[];portConstraint=eastwest;strokeColor=inherit;" parent="b5p1jlufVg6Kx3kPIUmd-58" vertex="1">
          <mxGeometry y="26" width="96" height="8" as="geometry" />
        </mxCell>
        <mxCell id="b5p1jlufVg6Kx3kPIUmd-62" value="" style="endArrow=none;html=1;edgeStyle=orthogonalEdgeStyle;rounded=0;exitX=0;exitY=0.5;exitDx=0;exitDy=0;entryX=1;entryY=0;entryDx=0;entryDy=0;" parent="1" source="b5p1jlufVg6Kx3kPIUmd-58" target="b5p1jlufVg6Kx3kPIUmd-1" edge="1">
          <mxGeometry relative="1" as="geometry">
            <mxPoint x="1460" y="910" as="sourcePoint" />
            <mxPoint x="1620" y="910" as="targetPoint" />
          </mxGeometry>
        </mxCell>
        <mxCell id="b5p1jlufVg6Kx3kPIUmd-63" value="parent" style="edgeLabel;resizable=0;html=1;align=left;verticalAlign=bottom;" parent="b5p1jlufVg6Kx3kPIUmd-62" connectable="0" vertex="1">
          <mxGeometry x="-1" relative="1" as="geometry">
            <mxPoint x="-40" y="-7" as="offset" />
          </mxGeometry>
        </mxCell>
        <mxCell id="b5p1jlufVg6Kx3kPIUmd-64" value="child" style="edgeLabel;resizable=0;html=1;align=right;verticalAlign=bottom;" parent="b5p1jlufVg6Kx3kPIUmd-62" connectable="0" vertex="1">
          <mxGeometry x="1" relative="1" as="geometry">
            <mxPoint as="offset" />
          </mxGeometry>
        </mxCell>
        <mxCell id="b5p1jlufVg6Kx3kPIUmd-65" value="" style="endArrow=none;html=1;edgeStyle=orthogonalEdgeStyle;rounded=0;exitX=0;exitY=1;exitDx=0;exitDy=0;entryX=1;entryY=1;entryDx=0;entryDy=0;" parent="1" source="b5p1jlufVg6Kx3kPIUmd-58" target="b5p1jlufVg6Kx3kPIUmd-49" edge="1">
          <mxGeometry relative="1" as="geometry">
            <mxPoint x="1390" y="620" as="sourcePoint" />
            <mxPoint x="1370" y="673" as="targetPoint" />
          </mxGeometry>
        </mxCell>
        <mxCell id="b5p1jlufVg6Kx3kPIUmd-66" value="parent" style="edgeLabel;resizable=0;html=1;align=left;verticalAlign=bottom;" parent="b5p1jlufVg6Kx3kPIUmd-65" connectable="0" vertex="1">
          <mxGeometry x="-1" relative="1" as="geometry">
            <mxPoint x="-10" y="26" as="offset" />
          </mxGeometry>
        </mxCell>
        <mxCell id="b5p1jlufVg6Kx3kPIUmd-67" value="child" style="edgeLabel;resizable=0;html=1;align=right;verticalAlign=bottom;" parent="b5p1jlufVg6Kx3kPIUmd-65" connectable="0" vertex="1">
          <mxGeometry x="1" relative="1" as="geometry">
            <mxPoint x="30" y="10" as="offset" />
          </mxGeometry>
        </mxCell>
        <mxCell id="b5p1jlufVg6Kx3kPIUmd-68" value="" style="endArrow=none;html=1;edgeStyle=orthogonalEdgeStyle;rounded=0;exitX=0.25;exitY=1;exitDx=0;exitDy=0;entryX=1;entryY=0.5;entryDx=0;entryDy=0;" parent="1" source="b5p1jlufVg6Kx3kPIUmd-58" target="b5p1jlufVg6Kx3kPIUmd-51" edge="1">
          <mxGeometry relative="1" as="geometry">
            <mxPoint x="1408" y="598" as="sourcePoint" />
            <mxPoint x="1388" y="684" as="targetPoint" />
          </mxGeometry>
        </mxCell>
        <mxCell id="b5p1jlufVg6Kx3kPIUmd-69" value="parent" style="edgeLabel;resizable=0;html=1;align=left;verticalAlign=bottom;" parent="b5p1jlufVg6Kx3kPIUmd-68" connectable="0" vertex="1">
          <mxGeometry x="-1" relative="1" as="geometry">
            <mxPoint x="-14" y="56" as="offset" />
          </mxGeometry>
        </mxCell>
        <mxCell id="b5p1jlufVg6Kx3kPIUmd-70" value="child" style="edgeLabel;resizable=0;html=1;align=right;verticalAlign=bottom;" parent="b5p1jlufVg6Kx3kPIUmd-68" connectable="0" vertex="1">
          <mxGeometry x="1" relative="1" as="geometry">
            <mxPoint x="30" y="10" as="offset" />
          </mxGeometry>
        </mxCell>
        <mxCell id="b5p1jlufVg6Kx3kPIUmd-71" value="" style="endArrow=none;html=1;edgeStyle=orthogonalEdgeStyle;rounded=0;exitX=0.5;exitY=1;exitDx=0;exitDy=0;entryX=1;entryY=0.75;entryDx=0;entryDy=0;" parent="1" source="b5p1jlufVg6Kx3kPIUmd-58" target="b5p1jlufVg6Kx3kPIUmd-50" edge="1">
          <mxGeometry relative="1" as="geometry">
            <mxPoint x="1470" y="666.5" as="sourcePoint" />
            <mxPoint x="1426" y="843.5" as="targetPoint" />
          </mxGeometry>
        </mxCell>
        <mxCell id="b5p1jlufVg6Kx3kPIUmd-72" value="parent" style="edgeLabel;resizable=0;html=1;align=left;verticalAlign=bottom;" parent="b5p1jlufVg6Kx3kPIUmd-71" connectable="0" vertex="1">
          <mxGeometry x="-1" relative="1" as="geometry">
            <mxPoint x="-18" y="76" as="offset" />
          </mxGeometry>
        </mxCell>
        <mxCell id="b5p1jlufVg6Kx3kPIUmd-73" value="child" style="edgeLabel;resizable=0;html=1;align=right;verticalAlign=bottom;" parent="b5p1jlufVg6Kx3kPIUmd-71" connectable="0" vertex="1">
          <mxGeometry x="1" relative="1" as="geometry">
            <mxPoint x="30" y="10" as="offset" />
          </mxGeometry>
        </mxCell>
        <mxCell id="b5p1jlufVg6Kx3kPIUmd-74" value="" style="endArrow=none;html=1;edgeStyle=orthogonalEdgeStyle;rounded=0;exitX=0.75;exitY=1;exitDx=0;exitDy=0;entryX=0.999;entryY=0.678;entryDx=0;entryDy=0;entryPerimeter=0;" parent="1" source="b5p1jlufVg6Kx3kPIUmd-58" target="b5p1jlufVg6Kx3kPIUmd-48" edge="1">
          <mxGeometry relative="1" as="geometry">
            <mxPoint x="1468" y="800" as="sourcePoint" />
            <mxPoint x="1400" y="1085" as="targetPoint" />
          </mxGeometry>
        </mxCell>
        <mxCell id="b5p1jlufVg6Kx3kPIUmd-75" value="parent" style="edgeLabel;resizable=0;html=1;align=left;verticalAlign=bottom;" parent="b5p1jlufVg6Kx3kPIUmd-74" connectable="0" vertex="1">
          <mxGeometry x="-1" relative="1" as="geometry">
            <mxPoint x="-18" y="96" as="offset" />
          </mxGeometry>
        </mxCell>
        <mxCell id="b5p1jlufVg6Kx3kPIUmd-76" value="child" style="edgeLabel;resizable=0;html=1;align=right;verticalAlign=bottom;" parent="b5p1jlufVg6Kx3kPIUmd-74" connectable="0" vertex="1">
          <mxGeometry x="1" relative="1" as="geometry">
            <mxPoint x="30" y="10" as="offset" />
          </mxGeometry>
        </mxCell>
        <mxCell id="b5p1jlufVg6Kx3kPIUmd-87" value="Use" style="endArrow=open;endSize=12;dashed=1;html=1;rounded=0;entryX=0;entryY=0.5;entryDx=0;entryDy=0;exitX=0;exitY=1;exitDx=0;exitDy=0;" parent="1" source="b5p1jlufVg6Kx3kPIUmd-55" target="b5p1jlufVg6Kx3kPIUmd-49" edge="1">
          <mxGeometry x="0.0111" width="160" relative="1" as="geometry">
            <mxPoint x="1090" y="230" as="sourcePoint" />
            <mxPoint x="1090" y="630" as="targetPoint" />
            <Array as="points">
              <mxPoint x="1080" y="206" />
              <mxPoint x="1080" y="420" />
              <mxPoint x="1080" y="648" />
            </Array>
            <mxPoint as="offset" />
          </mxGeometry>
        </mxCell>
        <mxCell id="b5p1jlufVg6Kx3kPIUmd-88" value="Use" style="endArrow=open;endSize=12;dashed=1;html=1;rounded=0;exitX=1.002;exitY=0.408;exitDx=0;exitDy=0;exitPerimeter=0;entryX=0;entryY=0;entryDx=0;entryDy=0;" parent="1" source="b5p1jlufVg6Kx3kPIUmd-36" target="b5p1jlufVg6Kx3kPIUmd-51" edge="1">
          <mxGeometry width="160" relative="1" as="geometry">
            <mxPoint x="844" y="740" as="sourcePoint" />
            <mxPoint x="1004" y="740" as="targetPoint" />
          </mxGeometry>
        </mxCell>
        <mxCell id="b5p1jlufVg6Kx3kPIUmd-91" value="0..*" style="text;html=1;align=center;verticalAlign=middle;resizable=0;points=[];autosize=1;strokeColor=none;fillColor=none;" parent="1" vertex="1">
          <mxGeometry x="820" y="580" width="40" height="30" as="geometry" />
        </mxCell>
        <mxCell id="b5p1jlufVg6Kx3kPIUmd-100" value="1" style="text;html=1;align=center;verticalAlign=middle;resizable=0;points=[];autosize=1;strokeColor=none;fillColor=none;" parent="1" vertex="1">
          <mxGeometry x="1100" y="420" width="30" height="30" as="geometry" />
        </mxCell>
        <mxCell id="b5p1jlufVg6Kx3kPIUmd-106" value="0..*" style="text;html=1;align=center;verticalAlign=middle;resizable=0;points=[];autosize=1;strokeColor=none;fillColor=none;" parent="1" vertex="1">
          <mxGeometry x="1080" y="150" width="40" height="30" as="geometry" />
        </mxCell>
        <mxCell id="b5p1jlufVg6Kx3kPIUmd-108" value="0..1" style="text;html=1;align=center;verticalAlign=middle;resizable=0;points=[];autosize=1;strokeColor=none;fillColor=none;" parent="1" vertex="1">
          <mxGeometry x="1090" y="290" width="40" height="30" as="geometry" />
        </mxCell>
        <mxCell id="b5p1jlufVg6Kx3kPIUmd-111" value="1" style="endArrow=open;html=1;endSize=12;startArrow=diamondThin;startSize=14;startFill=1;edgeStyle=orthogonalEdgeStyle;align=left;verticalAlign=bottom;rounded=0;exitX=1.008;exitY=0.145;exitDx=0;exitDy=0;exitPerimeter=0;entryX=0;entryY=0.5;entryDx=0;entryDy=0;" parent="1" source="b5p1jlufVg6Kx3kPIUmd-34" target="b5p1jlufVg6Kx3kPIUmd-54" edge="1">
          <mxGeometry x="-1" y="3" relative="1" as="geometry">
            <mxPoint x="860" y="650" as="sourcePoint" />
            <mxPoint x="1020" y="650" as="targetPoint" />
            <Array as="points">
              <mxPoint x="880" y="644" />
              <mxPoint x="880" y="451" />
            </Array>
          </mxGeometry>
        </mxCell>
        <mxCell id="b5p1jlufVg6Kx3kPIUmd-117" value="1" style="endArrow=open;html=1;endSize=12;startArrow=diamondThin;startSize=14;startFill=0;edgeStyle=orthogonalEdgeStyle;align=left;verticalAlign=bottom;rounded=0;entryX=1;entryY=0;entryDx=0;entryDy=0;" parent="1" target="b5p1jlufVg6Kx3kPIUmd-33" edge="1">
          <mxGeometry x="-1" y="3" relative="1" as="geometry">
            <mxPoint x="830" y="420" as="sourcePoint" />
            <mxPoint x="870" y="570" as="targetPoint" />
            <Array as="points">
              <mxPoint x="860" y="420" />
              <mxPoint x="860" y="610" />
            </Array>
          </mxGeometry>
        </mxCell>
        <mxCell id="b5p1jlufVg6Kx3kPIUmd-119" value="UserDict" style="swimlane;fontStyle=1;align=center;verticalAlign=top;childLayout=stackLayout;horizontal=1;startSize=26;horizontalStack=0;resizeParent=1;resizeParentMax=0;resizeLast=0;collapsible=1;marginBottom=0;whiteSpace=wrap;html=1;" parent="1" vertex="1">
          <mxGeometry x="620" y="300" width="160" height="60" as="geometry" />
        </mxCell>
        <mxCell id="b5p1jlufVg6Kx3kPIUmd-120" value="+ data: Dict" style="text;strokeColor=none;fillColor=none;align=left;verticalAlign=top;spacingLeft=4;spacingRight=4;overflow=hidden;rotatable=0;points=[[0,0.5],[1,0.5]];portConstraint=eastwest;whiteSpace=wrap;html=1;" parent="b5p1jlufVg6Kx3kPIUmd-119" vertex="1">
          <mxGeometry y="26" width="160" height="26" as="geometry" />
        </mxCell>
        <mxCell id="b5p1jlufVg6Kx3kPIUmd-121" value="" style="line;strokeWidth=1;fillColor=none;align=left;verticalAlign=middle;spacingTop=-1;spacingLeft=3;spacingRight=3;rotatable=0;labelPosition=right;points=[];portConstraint=eastwest;strokeColor=inherit;" parent="b5p1jlufVg6Kx3kPIUmd-119" vertex="1">
          <mxGeometry y="52" width="160" height="8" as="geometry" />
        </mxCell>
        <mxCell id="b5p1jlufVg6Kx3kPIUmd-123" value="" style="endArrow=none;html=1;edgeStyle=orthogonalEdgeStyle;rounded=0;exitX=1;exitY=0.25;exitDx=0;exitDy=0;entryX=1;entryY=0;entryDx=0;entryDy=0;" parent="1" source="b5p1jlufVg6Kx3kPIUmd-119" target="b5p1jlufVg6Kx3kPIUmd-37" edge="1">
          <mxGeometry relative="1" as="geometry">
            <mxPoint x="1052" y="269" as="sourcePoint" />
            <mxPoint x="960" y="651" as="targetPoint" />
            <Array as="points">
              <mxPoint x="780" y="300" />
              <mxPoint x="830" y="300" />
            </Array>
          </mxGeometry>
        </mxCell>
        <mxCell id="b5p1jlufVg6Kx3kPIUmd-124" value="parent" style="edgeLabel;resizable=0;html=1;align=left;verticalAlign=bottom;" parent="b5p1jlufVg6Kx3kPIUmd-123" connectable="0" vertex="1">
          <mxGeometry x="-1" relative="1" as="geometry">
            <mxPoint x="10" y="25" as="offset" />
          </mxGeometry>
        </mxCell>
        <mxCell id="b5p1jlufVg6Kx3kPIUmd-125" value="child" style="edgeLabel;resizable=0;html=1;align=right;verticalAlign=bottom;" parent="b5p1jlufVg6Kx3kPIUmd-123" connectable="0" vertex="1">
          <mxGeometry x="1" relative="1" as="geometry">
            <mxPoint x="10" y="-10" as="offset" />
          </mxGeometry>
        </mxCell>
        <mxCell id="b5p1jlufVg6Kx3kPIUmd-127" value="Use" style="endArrow=open;endSize=12;dashed=1;html=1;rounded=0;entryX=0;entryY=0;entryDx=0;entryDy=0;" parent="1" source="b5p1jlufVg6Kx3kPIUmd-31" target="b5p1jlufVg6Kx3kPIUmd-50" edge="1">
          <mxGeometry x="0.0111" width="160" relative="1" as="geometry">
            <mxPoint x="1110" y="350" as="sourcePoint" />
            <mxPoint x="1110" y="792" as="targetPoint" />
            <Array as="points">
              <mxPoint x="1060" y="350" />
              <mxPoint x="1060" y="564" />
              <mxPoint x="1060" y="836" />
            </Array>
            <mxPoint as="offset" />
          </mxGeometry>
        </mxCell>
        <mxCell id="b5p1jlufVg6Kx3kPIUmd-128" value="Use" style="endArrow=open;endSize=12;dashed=1;html=1;rounded=0;entryX=0;entryY=0.25;entryDx=0;entryDy=0;" parent="1" source="b5p1jlufVg6Kx3kPIUmd-23" target="b5p1jlufVg6Kx3kPIUmd-5" edge="1">
          <mxGeometry x="0.0574" width="160" relative="1" as="geometry">
            <mxPoint x="1090" y="470" as="sourcePoint" />
            <mxPoint x="1090" y="956" as="targetPoint" />
            <Array as="points">
              <mxPoint x="1030" y="470" />
              <mxPoint x="1030" y="580" />
              <mxPoint x="1030" y="932" />
            </Array>
            <mxPoint as="offset" />
          </mxGeometry>
        </mxCell>
        <mxCell id="b5p1jlufVg6Kx3kPIUmd-129" value="Use" style="endArrow=open;endSize=12;dashed=1;html=1;rounded=0;exitX=0.999;exitY=0.703;exitDx=0;exitDy=0;exitPerimeter=0;entryX=0.012;entryY=0.217;entryDx=0;entryDy=0;entryPerimeter=0;" parent="1" source="b5p1jlufVg6Kx3kPIUmd-36" target="b5p1jlufVg6Kx3kPIUmd-3" edge="1">
          <mxGeometry width="160" relative="1" as="geometry">
            <mxPoint x="695.5" y="900" as="sourcePoint" />
            <mxPoint x="984.5" y="896" as="targetPoint" />
          </mxGeometry>
        </mxCell>
        <mxCell id="b5p1jlufVg6Kx3kPIUmd-130" value="Use" style="endArrow=open;endSize=12;dashed=1;html=1;rounded=0;exitX=1.002;exitY=0.458;exitDx=0;exitDy=0;exitPerimeter=0;entryX=-0.001;entryY=0.154;entryDx=0;entryDy=0;entryPerimeter=0;" parent="1" source="b5p1jlufVg6Kx3kPIUmd-40" target="b5p1jlufVg6Kx3kPIUmd-13" edge="1">
          <mxGeometry width="160" relative="1" as="geometry">
            <mxPoint x="780" y="830" as="sourcePoint" />
            <mxPoint x="940" y="830" as="targetPoint" />
          </mxGeometry>
        </mxCell>
        <mxCell id="b5p1jlufVg6Kx3kPIUmd-137" value="1" style="endArrow=open;html=1;endSize=12;startArrow=diamondThin;startSize=14;startFill=1;edgeStyle=orthogonalEdgeStyle;align=left;verticalAlign=bottom;rounded=0;exitX=1;exitY=0.5;exitDx=0;exitDy=0;entryX=0;entryY=0;entryDx=0;entryDy=0;" parent="1" source="b5p1jlufVg6Kx3kPIUmd-34" target="b5p1jlufVg6Kx3kPIUmd-55" edge="1">
          <mxGeometry x="-1" y="3" relative="1" as="geometry">
            <mxPoint x="870" y="670" as="sourcePoint" />
            <mxPoint x="1020" y="180" as="targetPoint" />
            <Array as="points">
              <mxPoint x="960" y="663" />
              <mxPoint x="960" y="176" />
            </Array>
          </mxGeometry>
        </mxCell>
        <mxCell id="b5p1jlufVg6Kx3kPIUmd-139" value="1" style="endArrow=open;html=1;endSize=12;startArrow=diamondThin;startSize=14;startFill=1;edgeStyle=orthogonalEdgeStyle;align=left;verticalAlign=bottom;rounded=0;exitX=1.033;exitY=1;exitDx=0;exitDy=0;exitPerimeter=0;entryX=0;entryY=0;entryDx=0;entryDy=0;" parent="1" target="b5p1jlufVg6Kx3kPIUmd-56" edge="1">
          <mxGeometry x="-1" y="3" relative="1" as="geometry">
            <mxPoint x="839.9000000000001" y="694" as="sourcePoint" />
            <mxPoint x="1090" y="320" as="targetPoint" />
            <Array as="points">
              <mxPoint x="1010" y="694" />
              <mxPoint x="1010" y="316" />
            </Array>
          </mxGeometry>
        </mxCell>
        <mxCell id="IOxYdnQPK2HmboVUHy50-1" value="&lt;div style=&quot;color: rgb(204, 204, 204); background-color: rgb(31, 31, 31); font-family: Consolas, &amp;quot;Courier New&amp;quot;, monospace; font-weight: normal; line-height: 19px; white-space: pre;&quot;&gt;&lt;div style=&quot;line-height: 19px;&quot;&gt;&lt;span style=&quot;color: rgb(78, 201, 176);&quot;&gt;&lt;font style=&quot;font-size: 8px;&quot;&gt;CLI_UI&lt;/font&gt;&lt;/span&gt;&lt;/div&gt;&lt;/div&gt;" style="swimlane;fontStyle=1;align=center;verticalAlign=top;childLayout=stackLayout;horizontal=1;startSize=26;horizontalStack=0;resizeParent=1;resizeParentMax=0;resizeLast=0;collapsible=1;marginBottom=0;whiteSpace=wrap;html=1;" vertex="1" parent="1">
          <mxGeometry x="300" y="852" width="160" height="86" as="geometry" />
        </mxCell>
        <mxCell id="IOxYdnQPK2HmboVUHy50-2" value="+ self.book: AddressBook" style="text;strokeColor=none;fillColor=none;align=left;verticalAlign=top;spacingLeft=4;spacingRight=4;overflow=hidden;rotatable=0;points=[[0,0.5],[1,0.5]];portConstraint=eastwest;whiteSpace=wrap;html=1;" vertex="1" parent="IOxYdnQPK2HmboVUHy50-1">
          <mxGeometry y="26" width="160" height="26" as="geometry" />
        </mxCell>
        <mxCell id="IOxYdnQPK2HmboVUHy50-3" value="" style="line;strokeWidth=1;fillColor=none;align=left;verticalAlign=middle;spacingTop=-1;spacingLeft=3;spacingRight=3;rotatable=0;labelPosition=right;points=[];portConstraint=eastwest;strokeColor=inherit;" vertex="1" parent="IOxYdnQPK2HmboVUHy50-1">
          <mxGeometry y="52" width="160" height="8" as="geometry" />
        </mxCell>
        <mxCell id="IOxYdnQPK2HmboVUHy50-4" value="+ run(self)" style="text;strokeColor=none;fillColor=none;align=left;verticalAlign=top;spacingLeft=4;spacingRight=4;overflow=hidden;rotatable=0;points=[[0,0.5],[1,0.5]];portConstraint=eastwest;whiteSpace=wrap;html=1;" vertex="1" parent="IOxYdnQPK2HmboVUHy50-1">
          <mxGeometry y="60" width="160" height="26" as="geometry" />
        </mxCell>
        <mxCell id="IOxYdnQPK2HmboVUHy50-7" value="1" style="text;html=1;align=center;verticalAlign=middle;resizable=0;points=[];autosize=1;strokeColor=none;fillColor=none;" vertex="1" parent="1">
          <mxGeometry x="480" y="528" width="30" height="30" as="geometry" />
        </mxCell>
        <mxCell id="IOxYdnQPK2HmboVUHy50-8" value="&lt;div style=&quot;color: rgb(204, 204, 204); background-color: rgb(31, 31, 31); font-family: Consolas, &amp;quot;Courier New&amp;quot;, monospace; font-weight: normal; line-height: 19px; white-space: pre;&quot;&gt;&lt;span style=&quot;color: rgb(78, 201, 176);&quot;&gt;&lt;i style=&quot;&quot;&gt;&lt;font style=&quot;font-size: 8px;&quot;&gt;UI&lt;/font&gt;&lt;/i&gt;&lt;/span&gt;&lt;/div&gt;" style="swimlane;fontStyle=1;align=center;verticalAlign=top;childLayout=stackLayout;horizontal=1;startSize=26;horizontalStack=0;resizeParent=1;resizeParentMax=0;resizeLast=0;collapsible=1;marginBottom=0;whiteSpace=wrap;html=1;" vertex="1" parent="1">
          <mxGeometry x="290" y="1100" width="160" height="60" as="geometry" />
        </mxCell>
        <mxCell id="IOxYdnQPK2HmboVUHy50-10" value="" style="line;strokeWidth=1;fillColor=none;align=left;verticalAlign=middle;spacingTop=-1;spacingLeft=3;spacingRight=3;rotatable=0;labelPosition=right;points=[];portConstraint=eastwest;strokeColor=inherit;" vertex="1" parent="IOxYdnQPK2HmboVUHy50-8">
          <mxGeometry y="26" width="160" height="8" as="geometry" />
        </mxCell>
        <mxCell id="IOxYdnQPK2HmboVUHy50-11" value="+ run(self)" style="text;strokeColor=none;fillColor=none;align=left;verticalAlign=top;spacingLeft=4;spacingRight=4;overflow=hidden;rotatable=0;points=[[0,0.5],[1,0.5]];portConstraint=eastwest;whiteSpace=wrap;html=1;" vertex="1" parent="IOxYdnQPK2HmboVUHy50-8">
          <mxGeometry y="34" width="160" height="26" as="geometry" />
        </mxCell>
        <mxCell id="IOxYdnQPK2HmboVUHy50-15" value="&lt;div style=&quot;color: rgb(204, 204, 204); background-color: rgb(31, 31, 31); font-family: Consolas, &amp;quot;Courier New&amp;quot;, monospace; font-weight: normal; line-height: 19px; white-space: pre;&quot;&gt;&lt;span style=&quot;color: rgb(78, 201, 176);&quot;&gt;&lt;font style=&quot;font-size: 8px;&quot;&gt;ErrorMessageEnum&lt;/font&gt;&lt;/span&gt;&lt;/div&gt;" style="swimlane;fontStyle=1;align=center;verticalAlign=top;childLayout=stackLayout;horizontal=1;startSize=26;horizontalStack=0;resizeParent=1;resizeParentMax=0;resizeLast=0;collapsible=1;marginBottom=0;whiteSpace=wrap;html=1;" vertex="1" parent="1">
          <mxGeometry x="1480" y="810" width="160" height="128" as="geometry" />
        </mxCell>
        <mxCell id="IOxYdnQPK2HmboVUHy50-16" value="+ PHONE_NAME: str&lt;div&gt;+ NAME_LENGTH: str&lt;/div&gt;&lt;div&gt;+ BIRTHDAY_FORMAT: str&lt;/div&gt;&lt;div&gt;+ ITEM_NOT_FOUND: str&lt;/div&gt;&lt;div&gt;+ INVALID_COMMAND: str&amp;nbsp;&lt;/div&gt;" style="text;strokeColor=none;fillColor=none;align=left;verticalAlign=top;spacingLeft=4;spacingRight=4;overflow=hidden;rotatable=0;points=[[0,0.5],[1,0.5]];portConstraint=eastwest;whiteSpace=wrap;html=1;" vertex="1" parent="IOxYdnQPK2HmboVUHy50-15">
          <mxGeometry y="26" width="160" height="94" as="geometry" />
        </mxCell>
        <mxCell id="IOxYdnQPK2HmboVUHy50-17" value="" style="line;strokeWidth=1;fillColor=none;align=left;verticalAlign=middle;spacingTop=-1;spacingLeft=3;spacingRight=3;rotatable=0;labelPosition=right;points=[];portConstraint=eastwest;strokeColor=inherit;" vertex="1" parent="IOxYdnQPK2HmboVUHy50-15">
          <mxGeometry y="120" width="160" height="8" as="geometry" />
        </mxCell>
        <mxCell id="IOxYdnQPK2HmboVUHy50-19" value="&lt;div style=&quot;color: rgb(204, 204, 204); background-color: rgb(31, 31, 31); font-family: Consolas, &amp;quot;Courier New&amp;quot;, monospace; font-weight: normal; line-height: 19px; white-space: pre;&quot;&gt;&lt;span style=&quot;color: rgb(78, 201, 176);&quot;&gt;&lt;font style=&quot;font-size: 8px;&quot;&gt;InputErrorHandler&lt;/font&gt;&lt;/span&gt;&lt;/div&gt;" style="swimlane;fontStyle=1;align=center;verticalAlign=top;childLayout=stackLayout;horizontal=1;startSize=26;horizontalStack=0;resizeParent=1;resizeParentMax=0;resizeLast=0;collapsible=1;marginBottom=0;whiteSpace=wrap;html=1;" vertex="1" parent="1">
          <mxGeometry x="520" y="230" width="200" height="60" as="geometry" />
        </mxCell>
        <mxCell id="IOxYdnQPK2HmboVUHy50-21" value="" style="line;strokeWidth=1;fillColor=none;align=left;verticalAlign=middle;spacingTop=-1;spacingLeft=3;spacingRight=3;rotatable=0;labelPosition=right;points=[];portConstraint=eastwest;strokeColor=inherit;" vertex="1" parent="IOxYdnQPK2HmboVUHy50-19">
          <mxGeometry y="26" width="200" height="8" as="geometry" />
        </mxCell>
        <mxCell id="IOxYdnQPK2HmboVUHy50-22" value="+ handle_error(Callable): Callable" style="text;strokeColor=none;fillColor=none;align=left;verticalAlign=top;spacingLeft=4;spacingRight=4;overflow=hidden;rotatable=0;points=[[0,0.5],[1,0.5]];portConstraint=eastwest;whiteSpace=wrap;html=1;" vertex="1" parent="IOxYdnQPK2HmboVUHy50-19">
          <mxGeometry y="34" width="200" height="26" as="geometry" />
        </mxCell>
        <mxCell id="IOxYdnQPK2HmboVUHy50-26" value="Use" style="endArrow=open;endSize=12;dashed=1;html=1;rounded=0;exitX=0.99;exitY=0.178;exitDx=0;exitDy=0;exitPerimeter=0;entryX=-0.006;entryY=0.117;entryDx=0;entryDy=0;entryPerimeter=0;" edge="1" parent="1" source="b5p1jlufVg6Kx3kPIUmd-13" target="IOxYdnQPK2HmboVUHy50-16">
          <mxGeometry width="160" relative="1" as="geometry">
            <mxPoint x="1480" y="701" as="sourcePoint" />
            <mxPoint x="1640" y="701" as="targetPoint" />
          </mxGeometry>
        </mxCell>
        <mxCell id="IOxYdnQPK2HmboVUHy50-27" value="Use" style="endArrow=open;endSize=12;dashed=1;html=1;rounded=0;exitX=1.015;exitY=0.189;exitDx=0;exitDy=0;exitPerimeter=0;entryX=-0.006;entryY=0.436;entryDx=0;entryDy=0;entryPerimeter=0;" edge="1" parent="1" source="b5p1jlufVg6Kx3kPIUmd-9" target="IOxYdnQPK2HmboVUHy50-16">
          <mxGeometry width="160" relative="1" as="geometry">
            <mxPoint x="1446" y="980" as="sourcePoint" />
            <mxPoint x="1606" y="980" as="targetPoint" />
          </mxGeometry>
        </mxCell>
        <mxCell id="IOxYdnQPK2HmboVUHy50-28" value="Use" style="endArrow=open;endSize=12;dashed=1;html=1;rounded=0;exitX=1;exitY=0.25;exitDx=0;exitDy=0;entryX=-0.006;entryY=0.883;entryDx=0;entryDy=0;entryPerimeter=0;" edge="1" parent="1" source="b5p1jlufVg6Kx3kPIUmd-5" target="IOxYdnQPK2HmboVUHy50-16">
          <mxGeometry width="160" relative="1" as="geometry">
            <mxPoint x="1470" y="980" as="sourcePoint" />
            <mxPoint x="1630" y="980" as="targetPoint" />
          </mxGeometry>
        </mxCell>
        <mxCell id="IOxYdnQPK2HmboVUHy50-29" value="Use" style="endArrow=open;endSize=12;dashed=1;html=1;rounded=0;exitX=0.985;exitY=0.152;exitDx=0;exitDy=0;exitPerimeter=0;entryX=0;entryY=0;entryDx=0;entryDy=0;" edge="1" parent="1" source="b5p1jlufVg6Kx3kPIUmd-1" target="IOxYdnQPK2HmboVUHy50-15">
          <mxGeometry width="160" relative="1" as="geometry">
            <mxPoint x="1446" y="702" as="sourcePoint" />
            <mxPoint x="1606" y="702" as="targetPoint" />
          </mxGeometry>
        </mxCell>
        <mxCell id="IOxYdnQPK2HmboVUHy50-32" value="&lt;div style=&quot;color: rgb(204, 204, 204); background-color: rgb(31, 31, 31); font-family: Consolas, &amp;quot;Courier New&amp;quot;, monospace; font-weight: normal; line-height: 19px; white-space: pre;&quot;&gt;&lt;span style=&quot;color: rgb(78, 201, 176);&quot;&gt;&lt;font style=&quot;font-size: 8px;&quot;&gt;&lt;i&gt;Command&lt;/i&gt;&lt;/font&gt;&lt;/span&gt;&lt;/div&gt;" style="swimlane;fontStyle=1;align=center;verticalAlign=top;childLayout=stackLayout;horizontal=1;startSize=26;horizontalStack=0;resizeParent=1;resizeParentMax=0;resizeLast=0;collapsible=1;marginBottom=0;whiteSpace=wrap;html=1;" vertex="1" parent="1">
          <mxGeometry y="20" width="160" height="98" as="geometry" />
        </mxCell>
        <mxCell id="IOxYdnQPK2HmboVUHy50-33" value="+ args: List[str]&lt;div&gt;+ book: AddressBook&lt;/div&gt;" style="text;strokeColor=none;fillColor=none;align=left;verticalAlign=top;spacingLeft=4;spacingRight=4;overflow=hidden;rotatable=0;points=[[0,0.5],[1,0.5]];portConstraint=eastwest;whiteSpace=wrap;html=1;" vertex="1" parent="IOxYdnQPK2HmboVUHy50-32">
          <mxGeometry y="26" width="160" height="34" as="geometry" />
        </mxCell>
        <mxCell id="IOxYdnQPK2HmboVUHy50-34" value="" style="line;strokeWidth=1;fillColor=none;align=left;verticalAlign=middle;spacingTop=-1;spacingLeft=3;spacingRight=3;rotatable=0;labelPosition=right;points=[];portConstraint=eastwest;strokeColor=inherit;" vertex="1" parent="IOxYdnQPK2HmboVUHy50-32">
          <mxGeometry y="60" width="160" height="8" as="geometry" />
        </mxCell>
        <mxCell id="IOxYdnQPK2HmboVUHy50-35" value="+ execute(self): str" style="text;strokeColor=none;fillColor=none;align=left;verticalAlign=top;spacingLeft=4;spacingRight=4;overflow=hidden;rotatable=0;points=[[0,0.5],[1,0.5]];portConstraint=eastwest;whiteSpace=wrap;html=1;" vertex="1" parent="IOxYdnQPK2HmboVUHy50-32">
          <mxGeometry y="68" width="160" height="30" as="geometry" />
        </mxCell>
        <mxCell id="IOxYdnQPK2HmboVUHy50-36" value="&lt;div style=&quot;color: rgb(204, 204, 204); background-color: rgb(31, 31, 31); font-family: Consolas, &amp;quot;Courier New&amp;quot;, monospace; font-weight: normal; line-height: 19px; white-space: pre;&quot;&gt;&lt;span style=&quot;color: rgb(78, 201, 176);&quot;&gt;&lt;font style=&quot;font-size: 8px;&quot;&gt;CloseCommand&lt;/font&gt;&lt;/span&gt;&lt;/div&gt;" style="swimlane;fontStyle=1;align=center;verticalAlign=top;childLayout=stackLayout;horizontal=1;startSize=26;horizontalStack=0;resizeParent=1;resizeParentMax=0;resizeLast=0;collapsible=1;marginBottom=0;whiteSpace=wrap;html=1;" vertex="1" parent="1">
          <mxGeometry x="210" y="130" width="160" height="60" as="geometry" />
        </mxCell>
        <mxCell id="IOxYdnQPK2HmboVUHy50-38" value="" style="line;strokeWidth=1;fillColor=none;align=left;verticalAlign=middle;spacingTop=-1;spacingLeft=3;spacingRight=3;rotatable=0;labelPosition=right;points=[];portConstraint=eastwest;strokeColor=inherit;" vertex="1" parent="IOxYdnQPK2HmboVUHy50-36">
          <mxGeometry y="26" width="160" height="8" as="geometry" />
        </mxCell>
        <mxCell id="IOxYdnQPK2HmboVUHy50-39" value="+ execute(self): str" style="text;strokeColor=none;fillColor=none;align=left;verticalAlign=top;spacingLeft=4;spacingRight=4;overflow=hidden;rotatable=0;points=[[0,0.5],[1,0.5]];portConstraint=eastwest;whiteSpace=wrap;html=1;" vertex="1" parent="IOxYdnQPK2HmboVUHy50-36">
          <mxGeometry y="34" width="160" height="26" as="geometry" />
        </mxCell>
        <mxCell id="IOxYdnQPK2HmboVUHy50-40" value="&lt;div style=&quot;color: rgb(204, 204, 204); background-color: rgb(31, 31, 31); font-family: Consolas, &amp;quot;Courier New&amp;quot;, monospace; font-weight: normal; line-height: 19px; white-space: pre;&quot;&gt;&lt;span style=&quot;color: rgb(78, 201, 176);&quot;&gt;&lt;font style=&quot;font-size: 8px;&quot;&gt;ExitCommand&lt;/font&gt;&lt;/span&gt;&lt;/div&gt;" style="swimlane;fontStyle=1;align=center;verticalAlign=top;childLayout=stackLayout;horizontal=1;startSize=26;horizontalStack=0;resizeParent=1;resizeParentMax=0;resizeLast=0;collapsible=1;marginBottom=0;whiteSpace=wrap;html=1;" vertex="1" parent="1">
          <mxGeometry x="210" y="270" width="160" height="60" as="geometry" />
        </mxCell>
        <mxCell id="IOxYdnQPK2HmboVUHy50-42" value="" style="line;strokeWidth=1;fillColor=none;align=left;verticalAlign=middle;spacingTop=-1;spacingLeft=3;spacingRight=3;rotatable=0;labelPosition=right;points=[];portConstraint=eastwest;strokeColor=inherit;" vertex="1" parent="IOxYdnQPK2HmboVUHy50-40">
          <mxGeometry y="26" width="160" height="8" as="geometry" />
        </mxCell>
        <mxCell id="IOxYdnQPK2HmboVUHy50-43" value="+ execute(self): str" style="text;strokeColor=none;fillColor=none;align=left;verticalAlign=top;spacingLeft=4;spacingRight=4;overflow=hidden;rotatable=0;points=[[0,0.5],[1,0.5]];portConstraint=eastwest;whiteSpace=wrap;html=1;" vertex="1" parent="IOxYdnQPK2HmboVUHy50-40">
          <mxGeometry y="34" width="160" height="26" as="geometry" />
        </mxCell>
        <mxCell id="IOxYdnQPK2HmboVUHy50-44" value="&lt;div style=&quot;color: rgb(204, 204, 204); background-color: rgb(31, 31, 31); font-family: Consolas, &amp;quot;Courier New&amp;quot;, monospace; font-weight: normal; line-height: 19px; white-space: pre;&quot;&gt;&lt;span style=&quot;color: rgb(78, 201, 176);&quot;&gt;&lt;font style=&quot;font-size: 8px;&quot;&gt;AddContactCommand&lt;/font&gt;&lt;/span&gt;&lt;/div&gt;" style="swimlane;fontStyle=1;align=center;verticalAlign=top;childLayout=stackLayout;horizontal=1;startSize=26;horizontalStack=0;resizeParent=1;resizeParentMax=0;resizeLast=0;collapsible=1;marginBottom=0;whiteSpace=wrap;html=1;" vertex="1" parent="1">
          <mxGeometry x="210" y="410" width="160" height="60" as="geometry" />
        </mxCell>
        <mxCell id="IOxYdnQPK2HmboVUHy50-46" value="" style="line;strokeWidth=1;fillColor=none;align=left;verticalAlign=middle;spacingTop=-1;spacingLeft=3;spacingRight=3;rotatable=0;labelPosition=right;points=[];portConstraint=eastwest;strokeColor=inherit;" vertex="1" parent="IOxYdnQPK2HmboVUHy50-44">
          <mxGeometry y="26" width="160" height="8" as="geometry" />
        </mxCell>
        <mxCell id="IOxYdnQPK2HmboVUHy50-47" value="+ execute(self): str" style="text;strokeColor=none;fillColor=none;align=left;verticalAlign=top;spacingLeft=4;spacingRight=4;overflow=hidden;rotatable=0;points=[[0,0.5],[1,0.5]];portConstraint=eastwest;whiteSpace=wrap;html=1;" vertex="1" parent="IOxYdnQPK2HmboVUHy50-44">
          <mxGeometry y="34" width="160" height="26" as="geometry" />
        </mxCell>
        <mxCell id="IOxYdnQPK2HmboVUHy50-48" value="&lt;div style=&quot;color: rgb(204, 204, 204); background-color: rgb(31, 31, 31); font-family: Consolas, &amp;quot;Courier New&amp;quot;, monospace; font-weight: normal; line-height: 19px; white-space: pre;&quot;&gt;&lt;span style=&quot;color: rgb(78, 201, 176);&quot;&gt;&lt;font style=&quot;font-size: 8px;&quot;&gt;ChangeContactCommand&lt;/font&gt;&lt;/span&gt;&lt;/div&gt;" style="swimlane;fontStyle=1;align=center;verticalAlign=top;childLayout=stackLayout;horizontal=1;startSize=26;horizontalStack=0;resizeParent=1;resizeParentMax=0;resizeLast=0;collapsible=1;marginBottom=0;whiteSpace=wrap;html=1;" vertex="1" parent="1">
          <mxGeometry x="210" y="480" width="160" height="60" as="geometry" />
        </mxCell>
        <mxCell id="IOxYdnQPK2HmboVUHy50-50" value="" style="line;strokeWidth=1;fillColor=none;align=left;verticalAlign=middle;spacingTop=-1;spacingLeft=3;spacingRight=3;rotatable=0;labelPosition=right;points=[];portConstraint=eastwest;strokeColor=inherit;" vertex="1" parent="IOxYdnQPK2HmboVUHy50-48">
          <mxGeometry y="26" width="160" height="8" as="geometry" />
        </mxCell>
        <mxCell id="IOxYdnQPK2HmboVUHy50-51" value="+ execute(self): str" style="text;strokeColor=none;fillColor=none;align=left;verticalAlign=top;spacingLeft=4;spacingRight=4;overflow=hidden;rotatable=0;points=[[0,0.5],[1,0.5]];portConstraint=eastwest;whiteSpace=wrap;html=1;" vertex="1" parent="IOxYdnQPK2HmboVUHy50-48">
          <mxGeometry y="34" width="160" height="26" as="geometry" />
        </mxCell>
        <mxCell id="IOxYdnQPK2HmboVUHy50-52" value="&lt;div style=&quot;color: rgb(204, 204, 204); background-color: rgb(31, 31, 31); font-family: Consolas, &amp;quot;Courier New&amp;quot;, monospace; font-weight: normal; line-height: 19px; white-space: pre;&quot;&gt;&lt;span style=&quot;color: rgb(78, 201, 176);&quot;&gt;&lt;font style=&quot;font-size: 8px;&quot;&gt;HelloCommand&lt;/font&gt;&lt;/span&gt;&lt;/div&gt;" style="swimlane;fontStyle=1;align=center;verticalAlign=top;childLayout=stackLayout;horizontal=1;startSize=26;horizontalStack=0;resizeParent=1;resizeParentMax=0;resizeLast=0;collapsible=1;marginBottom=0;whiteSpace=wrap;html=1;" vertex="1" parent="1">
          <mxGeometry x="210" y="340" width="160" height="60" as="geometry" />
        </mxCell>
        <mxCell id="IOxYdnQPK2HmboVUHy50-54" value="" style="line;strokeWidth=1;fillColor=none;align=left;verticalAlign=middle;spacingTop=-1;spacingLeft=3;spacingRight=3;rotatable=0;labelPosition=right;points=[];portConstraint=eastwest;strokeColor=inherit;" vertex="1" parent="IOxYdnQPK2HmboVUHy50-52">
          <mxGeometry y="26" width="160" height="8" as="geometry" />
        </mxCell>
        <mxCell id="IOxYdnQPK2HmboVUHy50-55" value="+ execute(self): str" style="text;strokeColor=none;fillColor=none;align=left;verticalAlign=top;spacingLeft=4;spacingRight=4;overflow=hidden;rotatable=0;points=[[0,0.5],[1,0.5]];portConstraint=eastwest;whiteSpace=wrap;html=1;" vertex="1" parent="IOxYdnQPK2HmboVUHy50-52">
          <mxGeometry y="34" width="160" height="26" as="geometry" />
        </mxCell>
        <mxCell id="IOxYdnQPK2HmboVUHy50-56" value="&lt;div style=&quot;color: rgb(204, 204, 204); background-color: rgb(31, 31, 31); font-family: Consolas, &amp;quot;Courier New&amp;quot;, monospace; font-weight: normal; line-height: 19px; white-space: pre;&quot;&gt;&lt;span style=&quot;color: rgb(78, 201, 176);&quot;&gt;&lt;font style=&quot;font-size: 8px;&quot;&gt;AddBirthdayCommand&lt;/font&gt;&lt;/span&gt;&lt;/div&gt;" style="swimlane;fontStyle=1;align=center;verticalAlign=top;childLayout=stackLayout;horizontal=1;startSize=26;horizontalStack=0;resizeParent=1;resizeParentMax=0;resizeLast=0;collapsible=1;marginBottom=0;whiteSpace=wrap;html=1;" vertex="1" parent="1">
          <mxGeometry x="210" y="690" width="160" height="60" as="geometry" />
        </mxCell>
        <mxCell id="IOxYdnQPK2HmboVUHy50-58" value="" style="line;strokeWidth=1;fillColor=none;align=left;verticalAlign=middle;spacingTop=-1;spacingLeft=3;spacingRight=3;rotatable=0;labelPosition=right;points=[];portConstraint=eastwest;strokeColor=inherit;" vertex="1" parent="IOxYdnQPK2HmboVUHy50-56">
          <mxGeometry y="26" width="160" height="8" as="geometry" />
        </mxCell>
        <mxCell id="IOxYdnQPK2HmboVUHy50-59" value="+ execute(self): str" style="text;strokeColor=none;fillColor=none;align=left;verticalAlign=top;spacingLeft=4;spacingRight=4;overflow=hidden;rotatable=0;points=[[0,0.5],[1,0.5]];portConstraint=eastwest;whiteSpace=wrap;html=1;" vertex="1" parent="IOxYdnQPK2HmboVUHy50-56">
          <mxGeometry y="34" width="160" height="26" as="geometry" />
        </mxCell>
        <mxCell id="IOxYdnQPK2HmboVUHy50-60" value="&lt;div style=&quot;color: rgb(204, 204, 204); background-color: rgb(31, 31, 31); font-family: Consolas, &amp;quot;Courier New&amp;quot;, monospace; font-weight: normal; line-height: 19px; white-space: pre;&quot;&gt;&lt;span style=&quot;color: rgb(78, 201, 176);&quot;&gt;&lt;font style=&quot;font-size: 8px;&quot;&gt;ShowBirthdayCommand&lt;/font&gt;&lt;/span&gt;&lt;/div&gt;" style="swimlane;fontStyle=1;align=center;verticalAlign=top;childLayout=stackLayout;horizontal=1;startSize=26;horizontalStack=0;resizeParent=1;resizeParentMax=0;resizeLast=0;collapsible=1;marginBottom=0;whiteSpace=wrap;html=1;" vertex="1" parent="1">
          <mxGeometry x="210" y="760" width="160" height="60" as="geometry">
            <mxRectangle x="-120" y="740" width="120" height="30" as="alternateBounds" />
          </mxGeometry>
        </mxCell>
        <mxCell id="IOxYdnQPK2HmboVUHy50-62" value="" style="line;strokeWidth=1;fillColor=none;align=left;verticalAlign=middle;spacingTop=-1;spacingLeft=3;spacingRight=3;rotatable=0;labelPosition=right;points=[];portConstraint=eastwest;strokeColor=inherit;" vertex="1" parent="IOxYdnQPK2HmboVUHy50-60">
          <mxGeometry y="26" width="160" height="8" as="geometry" />
        </mxCell>
        <mxCell id="IOxYdnQPK2HmboVUHy50-63" value="+ execute(self): str" style="text;strokeColor=none;fillColor=none;align=left;verticalAlign=top;spacingLeft=4;spacingRight=4;overflow=hidden;rotatable=0;points=[[0,0.5],[1,0.5]];portConstraint=eastwest;whiteSpace=wrap;html=1;" vertex="1" parent="IOxYdnQPK2HmboVUHy50-60">
          <mxGeometry y="34" width="160" height="26" as="geometry" />
        </mxCell>
        <mxCell id="IOxYdnQPK2HmboVUHy50-64" value="&lt;div style=&quot;color: rgb(204, 204, 204); background-color: rgb(31, 31, 31); font-family: Consolas, &amp;quot;Courier New&amp;quot;, monospace; font-weight: normal; line-height: 19px; white-space: pre;&quot;&gt;&lt;span style=&quot;color: rgb(78, 201, 176);&quot;&gt;&lt;font style=&quot;font-size: 8px;&quot;&gt;ShowPhoneCommand&lt;/font&gt;&lt;/span&gt;&lt;/div&gt;" style="swimlane;fontStyle=1;align=center;verticalAlign=top;childLayout=stackLayout;horizontal=1;startSize=26;horizontalStack=0;resizeParent=1;resizeParentMax=0;resizeLast=0;collapsible=1;marginBottom=0;whiteSpace=wrap;html=1;" vertex="1" parent="1">
          <mxGeometry x="210" y="548" width="160" height="60" as="geometry" />
        </mxCell>
        <mxCell id="IOxYdnQPK2HmboVUHy50-66" value="" style="line;strokeWidth=1;fillColor=none;align=left;verticalAlign=middle;spacingTop=-1;spacingLeft=3;spacingRight=3;rotatable=0;labelPosition=right;points=[];portConstraint=eastwest;strokeColor=inherit;" vertex="1" parent="IOxYdnQPK2HmboVUHy50-64">
          <mxGeometry y="26" width="160" height="8" as="geometry" />
        </mxCell>
        <mxCell id="IOxYdnQPK2HmboVUHy50-67" value="+ execute(self): str" style="text;strokeColor=none;fillColor=none;align=left;verticalAlign=top;spacingLeft=4;spacingRight=4;overflow=hidden;rotatable=0;points=[[0,0.5],[1,0.5]];portConstraint=eastwest;whiteSpace=wrap;html=1;" vertex="1" parent="IOxYdnQPK2HmboVUHy50-64">
          <mxGeometry y="34" width="160" height="26" as="geometry" />
        </mxCell>
        <mxCell id="IOxYdnQPK2HmboVUHy50-68" value="&lt;div style=&quot;color: rgb(204, 204, 204); background-color: rgb(31, 31, 31); font-family: Consolas, &amp;quot;Courier New&amp;quot;, monospace; font-weight: normal; line-height: 19px; white-space: pre;&quot;&gt;&lt;div style=&quot;line-height: 19px;&quot;&gt;&lt;span style=&quot;color: rgb(78, 201, 176);&quot;&gt;&lt;font style=&quot;font-size: 8px;&quot;&gt;ShowAllCommand&lt;/font&gt;&lt;/span&gt;&lt;/div&gt;&lt;/div&gt;" style="swimlane;fontStyle=1;align=center;verticalAlign=top;childLayout=stackLayout;horizontal=1;startSize=26;horizontalStack=0;resizeParent=1;resizeParentMax=0;resizeLast=0;collapsible=1;marginBottom=0;whiteSpace=wrap;html=1;" vertex="1" parent="1">
          <mxGeometry x="210" y="620" width="160" height="60" as="geometry" />
        </mxCell>
        <mxCell id="IOxYdnQPK2HmboVUHy50-70" value="" style="line;strokeWidth=1;fillColor=none;align=left;verticalAlign=middle;spacingTop=-1;spacingLeft=3;spacingRight=3;rotatable=0;labelPosition=right;points=[];portConstraint=eastwest;strokeColor=inherit;" vertex="1" parent="IOxYdnQPK2HmboVUHy50-68">
          <mxGeometry y="26" width="160" height="8" as="geometry" />
        </mxCell>
        <mxCell id="IOxYdnQPK2HmboVUHy50-71" value="+ execute(self): str" style="text;strokeColor=none;fillColor=none;align=left;verticalAlign=top;spacingLeft=4;spacingRight=4;overflow=hidden;rotatable=0;points=[[0,0.5],[1,0.5]];portConstraint=eastwest;whiteSpace=wrap;html=1;" vertex="1" parent="IOxYdnQPK2HmboVUHy50-68">
          <mxGeometry y="34" width="160" height="26" as="geometry" />
        </mxCell>
        <mxCell id="IOxYdnQPK2HmboVUHy50-72" value="&lt;div style=&quot;color: rgb(204, 204, 204); background-color: rgb(31, 31, 31); font-family: Consolas, &amp;quot;Courier New&amp;quot;, monospace; font-weight: normal; line-height: 19px; white-space: pre;&quot;&gt;&lt;span style=&quot;color: rgb(78, 201, 176);&quot;&gt;&lt;font style=&quot;font-size: 8px;&quot;&gt;BirthdaysCommand&lt;/font&gt;&lt;/span&gt;&lt;/div&gt;" style="swimlane;fontStyle=1;align=center;verticalAlign=top;childLayout=stackLayout;horizontal=1;startSize=26;horizontalStack=0;resizeParent=1;resizeParentMax=0;resizeLast=0;collapsible=1;marginBottom=0;whiteSpace=wrap;html=1;" vertex="1" parent="1">
          <mxGeometry x="210" y="200" width="160" height="60" as="geometry" />
        </mxCell>
        <mxCell id="IOxYdnQPK2HmboVUHy50-74" value="" style="line;strokeWidth=1;fillColor=none;align=left;verticalAlign=middle;spacingTop=-1;spacingLeft=3;spacingRight=3;rotatable=0;labelPosition=right;points=[];portConstraint=eastwest;strokeColor=inherit;" vertex="1" parent="IOxYdnQPK2HmboVUHy50-72">
          <mxGeometry y="26" width="160" height="8" as="geometry" />
        </mxCell>
        <mxCell id="IOxYdnQPK2HmboVUHy50-75" value="+ execute(self): str" style="text;strokeColor=none;fillColor=none;align=left;verticalAlign=top;spacingLeft=4;spacingRight=4;overflow=hidden;rotatable=0;points=[[0,0.5],[1,0.5]];portConstraint=eastwest;whiteSpace=wrap;html=1;" vertex="1" parent="IOxYdnQPK2HmboVUHy50-72">
          <mxGeometry y="34" width="160" height="26" as="geometry" />
        </mxCell>
        <mxCell id="IOxYdnQPK2HmboVUHy50-76" value="&lt;div style=&quot;color: rgb(204, 204, 204); background-color: rgb(31, 31, 31); font-family: Consolas, &amp;quot;Courier New&amp;quot;, monospace; font-weight: normal; line-height: 19px; white-space: pre;&quot;&gt;&lt;span style=&quot;color: rgb(78, 201, 176);&quot;&gt;&lt;font style=&quot;font-size: 8px;&quot;&gt;EnumCommandsType&lt;/font&gt;&lt;/span&gt;&lt;/div&gt;" style="swimlane;fontStyle=1;align=center;verticalAlign=top;childLayout=stackLayout;horizontal=1;startSize=26;horizontalStack=0;resizeParent=1;resizeParentMax=0;resizeLast=0;collapsible=1;marginBottom=0;whiteSpace=wrap;html=1;" vertex="1" parent="1">
          <mxGeometry x="770" y="86" width="160" height="188" as="geometry" />
        </mxCell>
        <mxCell id="IOxYdnQPK2HmboVUHy50-77" value="&lt;div&gt;+ ADD: str&lt;/div&gt;&lt;div&gt;&lt;span style=&quot;background-color: initial;&quot;&gt;+&lt;/span&gt;&lt;span style=&quot;background-color: initial;&quot;&gt;&amp;nbsp;&lt;/span&gt;CHANGE: str&lt;/div&gt;&lt;div&gt;&lt;span style=&quot;background-color: initial;&quot;&gt;+&lt;/span&gt;&lt;span style=&quot;background-color: initial;&quot;&gt;&amp;nbsp;&lt;/span&gt;EXIT: str&lt;/div&gt;&lt;div&gt;&lt;span style=&quot;background-color: initial;&quot;&gt;+&lt;/span&gt;&lt;span style=&quot;background-color: initial;&quot;&gt;&amp;nbsp;&lt;/span&gt;CLOSE: str&lt;/div&gt;&lt;div&gt;&lt;span style=&quot;background-color: initial;&quot;&gt;+&lt;/span&gt;&lt;span style=&quot;background-color: initial;&quot;&gt;&amp;nbsp;&lt;/span&gt;HELLO: str&lt;/div&gt;&lt;div&gt;&lt;span style=&quot;background-color: initial;&quot;&gt;+&lt;/span&gt;&lt;span style=&quot;background-color: initial;&quot;&gt;&amp;nbsp;&lt;/span&gt;PHONE: str&lt;/div&gt;&lt;div&gt;&lt;span style=&quot;background-color: initial;&quot;&gt;+&lt;/span&gt;&lt;span style=&quot;background-color: initial;&quot;&gt;&amp;nbsp;&lt;/span&gt;ALL: str&lt;/div&gt;&lt;div&gt;&lt;span style=&quot;background-color: initial;&quot;&gt;+&lt;/span&gt;&lt;span style=&quot;background-color: initial;&quot;&gt;&amp;nbsp;&lt;/span&gt;BIRTHDAYS: str&lt;/div&gt;&lt;div&gt;&lt;span style=&quot;background-color: initial;&quot;&gt;+&lt;/span&gt;&lt;span style=&quot;background-color: initial;&quot;&gt;&amp;nbsp;&lt;/span&gt;ADD_BIRTHDAY: str&lt;/div&gt;&lt;div&gt;&lt;span style=&quot;background-color: initial;&quot;&gt;+&lt;/span&gt;&lt;span style=&quot;background-color: initial;&quot;&gt;&amp;nbsp;&lt;/span&gt;SHOW_BIRTHDAY: str&lt;/div&gt;" style="text;strokeColor=none;fillColor=none;align=left;verticalAlign=top;spacingLeft=4;spacingRight=4;overflow=hidden;rotatable=0;points=[[0,0.5],[1,0.5]];portConstraint=eastwest;whiteSpace=wrap;html=1;" vertex="1" parent="IOxYdnQPK2HmboVUHy50-76">
          <mxGeometry y="26" width="160" height="154" as="geometry" />
        </mxCell>
        <mxCell id="IOxYdnQPK2HmboVUHy50-78" value="" style="line;strokeWidth=1;fillColor=none;align=left;verticalAlign=middle;spacingTop=-1;spacingLeft=3;spacingRight=3;rotatable=0;labelPosition=right;points=[];portConstraint=eastwest;strokeColor=inherit;" vertex="1" parent="IOxYdnQPK2HmboVUHy50-76">
          <mxGeometry y="180" width="160" height="8" as="geometry" />
        </mxCell>
        <mxCell id="IOxYdnQPK2HmboVUHy50-80" value="&lt;div style=&quot;color: rgb(204, 204, 204); background-color: rgb(31, 31, 31); font-family: Consolas, &amp;quot;Courier New&amp;quot;, monospace; font-weight: normal; line-height: 19px; white-space: pre;&quot;&gt;&lt;span style=&quot;color: rgb(78, 201, 176);&quot;&gt;&lt;font style=&quot;font-size: 8px;&quot;&gt;&lt;i&gt;InvokerInterface&lt;/i&gt;&lt;/font&gt;&lt;/span&gt;&lt;/div&gt;" style="swimlane;fontStyle=1;align=center;verticalAlign=top;childLayout=stackLayout;horizontal=1;startSize=26;horizontalStack=0;resizeParent=1;resizeParentMax=0;resizeLast=0;collapsible=1;marginBottom=0;whiteSpace=wrap;html=1;" vertex="1" parent="1">
          <mxGeometry x="490" y="1100" width="460" height="60" as="geometry" />
        </mxCell>
        <mxCell id="IOxYdnQPK2HmboVUHy50-82" value="" style="line;strokeWidth=1;fillColor=none;align=left;verticalAlign=middle;spacingTop=-1;spacingLeft=3;spacingRight=3;rotatable=0;labelPosition=right;points=[];portConstraint=eastwest;strokeColor=inherit;" vertex="1" parent="IOxYdnQPK2HmboVUHy50-80">
          <mxGeometry y="26" width="460" height="8" as="geometry" />
        </mxCell>
        <mxCell id="IOxYdnQPK2HmboVUHy50-83" value="+ execute_command(self, command_map: Dict[EnumCommandsType, Command])" style="text;strokeColor=none;fillColor=none;align=left;verticalAlign=top;spacingLeft=4;spacingRight=4;overflow=hidden;rotatable=0;points=[[0,0.5],[1,0.5]];portConstraint=eastwest;whiteSpace=wrap;html=1;" vertex="1" parent="IOxYdnQPK2HmboVUHy50-80">
          <mxGeometry y="34" width="460" height="26" as="geometry" />
        </mxCell>
        <mxCell id="IOxYdnQPK2HmboVUHy50-84" value="&lt;div style=&quot;color: rgb(204, 204, 204); background-color: rgb(31, 31, 31); font-family: Consolas, &amp;quot;Courier New&amp;quot;, monospace; font-weight: normal; line-height: 19px; white-space: pre;&quot;&gt;&lt;span style=&quot;color: rgb(78, 201, 176);&quot;&gt;&lt;font style=&quot;font-size: 8px;&quot;&gt;Invoker&lt;/font&gt;&lt;/span&gt;&lt;/div&gt;" style="swimlane;fontStyle=1;align=center;verticalAlign=top;childLayout=stackLayout;horizontal=1;startSize=26;horizontalStack=0;resizeParent=1;resizeParentMax=0;resizeLast=0;collapsible=1;marginBottom=0;whiteSpace=wrap;html=1;" vertex="1" parent="1">
          <mxGeometry x="490" y="920" width="460" height="120" as="geometry" />
        </mxCell>
        <mxCell id="IOxYdnQPK2HmboVUHy50-85" value="+ command: EnumCommandsType&lt;div&gt;+ args: List[str]&lt;/div&gt;&lt;div&gt;+book: AddressBook&lt;/div&gt;" style="text;strokeColor=none;fillColor=none;align=left;verticalAlign=top;spacingLeft=4;spacingRight=4;overflow=hidden;rotatable=0;points=[[0,0.5],[1,0.5]];portConstraint=eastwest;whiteSpace=wrap;html=1;" vertex="1" parent="IOxYdnQPK2HmboVUHy50-84">
          <mxGeometry y="26" width="460" height="54" as="geometry" />
        </mxCell>
        <mxCell id="IOxYdnQPK2HmboVUHy50-86" value="" style="line;strokeWidth=1;fillColor=none;align=left;verticalAlign=middle;spacingTop=-1;spacingLeft=3;spacingRight=3;rotatable=0;labelPosition=right;points=[];portConstraint=eastwest;strokeColor=inherit;" vertex="1" parent="IOxYdnQPK2HmboVUHy50-84">
          <mxGeometry y="80" width="460" height="10" as="geometry" />
        </mxCell>
        <mxCell id="IOxYdnQPK2HmboVUHy50-87" value="+ execute_command(self, command_map: Dict[EnumCommandsType, Command])" style="text;strokeColor=none;fillColor=none;align=left;verticalAlign=top;spacingLeft=4;spacingRight=4;overflow=hidden;rotatable=0;points=[[0,0.5],[1,0.5]];portConstraint=eastwest;whiteSpace=wrap;html=1;" vertex="1" parent="IOxYdnQPK2HmboVUHy50-84">
          <mxGeometry y="90" width="460" height="30" as="geometry" />
        </mxCell>
        <mxCell id="IOxYdnQPK2HmboVUHy50-124" value="1" style="endArrow=open;html=1;endSize=12;startArrow=diamondThin;startSize=14;startFill=0;edgeStyle=orthogonalEdgeStyle;align=left;verticalAlign=bottom;rounded=0;exitX=1.018;exitY=0.201;exitDx=0;exitDy=0;exitPerimeter=0;entryX=0;entryY=0;entryDx=0;entryDy=0;" edge="1" parent="1" source="IOxYdnQPK2HmboVUHy50-32" target="b5p1jlufVg6Kx3kPIUmd-37">
          <mxGeometry x="-1" y="3" relative="1" as="geometry">
            <mxPoint x="-110" y="20" as="sourcePoint" />
            <mxPoint x="50" y="20" as="targetPoint" />
            <Array as="points">
              <mxPoint x="400" y="40" />
              <mxPoint x="400" y="380" />
            </Array>
          </mxGeometry>
        </mxCell>
        <mxCell id="IOxYdnQPK2HmboVUHy50-125" value="1" style="endArrow=open;html=1;endSize=12;startArrow=diamondThin;startSize=14;startFill=1;edgeStyle=orthogonalEdgeStyle;align=left;verticalAlign=bottom;rounded=0;exitX=1;exitY=0;exitDx=0;exitDy=0;entryX=-0.004;entryY=0.99;entryDx=0;entryDy=0;entryPerimeter=0;" edge="1" parent="1" source="IOxYdnQPK2HmboVUHy50-1" target="b5p1jlufVg6Kx3kPIUmd-40">
          <mxGeometry x="-0.9166" y="-10" relative="1" as="geometry">
            <mxPoint x="310" y="500" as="sourcePoint" />
            <mxPoint x="470" y="500" as="targetPoint" />
            <Array as="points">
              <mxPoint x="460" y="559" />
            </Array>
            <mxPoint as="offset" />
          </mxGeometry>
        </mxCell>
        <mxCell id="IOxYdnQPK2HmboVUHy50-126" value="1" style="text;html=1;align=center;verticalAlign=middle;resizable=0;points=[];autosize=1;strokeColor=none;fillColor=none;" vertex="1" parent="1">
          <mxGeometry x="480" y="350" width="30" height="30" as="geometry" />
        </mxCell>
        <mxCell id="IOxYdnQPK2HmboVUHy50-128" value="1" style="endArrow=open;html=1;endSize=12;startArrow=diamondThin;startSize=14;startFill=1;edgeStyle=orthogonalEdgeStyle;align=left;verticalAlign=bottom;rounded=0;exitX=1;exitY=0.25;exitDx=0;exitDy=0;entryX=0;entryY=0;entryDx=0;entryDy=0;" edge="1" parent="1" source="IOxYdnQPK2HmboVUHy50-44" target="b5p1jlufVg6Kx3kPIUmd-33">
          <mxGeometry x="-0.9437" y="-25" relative="1" as="geometry">
            <mxPoint x="110" y="400" as="sourcePoint" />
            <mxPoint x="270" y="400" as="targetPoint" />
            <Array as="points">
              <mxPoint x="410" y="425" />
              <mxPoint x="410" y="610" />
            </Array>
            <mxPoint as="offset" />
          </mxGeometry>
        </mxCell>
        <mxCell id="IOxYdnQPK2HmboVUHy50-129" value="1" style="text;html=1;align=center;verticalAlign=middle;resizable=0;points=[];autosize=1;strokeColor=none;fillColor=none;" vertex="1" parent="1">
          <mxGeometry x="510" y="580" width="30" height="30" as="geometry" />
        </mxCell>
        <mxCell id="IOxYdnQPK2HmboVUHy50-140" value="" style="endArrow=block;dashed=1;endFill=0;endSize=12;html=1;rounded=0;entryX=0.994;entryY=1.033;entryDx=0;entryDy=0;entryPerimeter=0;exitX=0;exitY=0;exitDx=0;exitDy=0;" edge="1" parent="1" source="IOxYdnQPK2HmboVUHy50-36" target="IOxYdnQPK2HmboVUHy50-35">
          <mxGeometry width="160" relative="1" as="geometry">
            <mxPoint y="800" as="sourcePoint" />
            <mxPoint x="60" y="380" as="targetPoint" />
          </mxGeometry>
        </mxCell>
        <mxCell id="IOxYdnQPK2HmboVUHy50-141" value="" style="endArrow=block;dashed=1;endFill=0;endSize=12;html=1;rounded=0;exitX=0;exitY=0;exitDx=0;exitDy=0;entryX=0.006;entryY=0.933;entryDx=0;entryDy=0;entryPerimeter=0;" edge="1" parent="1" source="IOxYdnQPK2HmboVUHy50-60" target="IOxYdnQPK2HmboVUHy50-35">
          <mxGeometry width="160" relative="1" as="geometry">
            <mxPoint x="-220" y="180" as="sourcePoint" />
            <mxPoint x="-60" y="180" as="targetPoint" />
          </mxGeometry>
        </mxCell>
        <mxCell id="IOxYdnQPK2HmboVUHy50-144" value="" style="endArrow=block;dashed=1;endFill=0;endSize=12;html=1;rounded=0;exitX=0;exitY=0;exitDx=0;exitDy=0;entryX=0.256;entryY=0.933;entryDx=0;entryDy=0;entryPerimeter=0;" edge="1" parent="1" source="IOxYdnQPK2HmboVUHy50-68" target="IOxYdnQPK2HmboVUHy50-35">
          <mxGeometry width="160" relative="1" as="geometry">
            <mxPoint x="-210" y="190" as="sourcePoint" />
            <mxPoint x="-50" y="190" as="targetPoint" />
          </mxGeometry>
        </mxCell>
        <mxCell id="IOxYdnQPK2HmboVUHy50-145" value="" style="endArrow=block;dashed=1;endFill=0;endSize=12;html=1;rounded=0;exitX=0;exitY=0;exitDx=0;exitDy=0;entryX=0.381;entryY=0.9;entryDx=0;entryDy=0;entryPerimeter=0;" edge="1" parent="1" source="IOxYdnQPK2HmboVUHy50-64" target="IOxYdnQPK2HmboVUHy50-35">
          <mxGeometry width="160" relative="1" as="geometry">
            <mxPoint x="-200" y="200" as="sourcePoint" />
            <mxPoint x="-40" y="200" as="targetPoint" />
          </mxGeometry>
        </mxCell>
        <mxCell id="IOxYdnQPK2HmboVUHy50-146" value="" style="endArrow=block;dashed=1;endFill=0;endSize=12;html=1;rounded=0;exitX=0;exitY=0;exitDx=0;exitDy=0;entryX=0.513;entryY=1.033;entryDx=0;entryDy=0;entryPerimeter=0;" edge="1" parent="1" source="IOxYdnQPK2HmboVUHy50-48" target="IOxYdnQPK2HmboVUHy50-35">
          <mxGeometry width="160" relative="1" as="geometry">
            <mxPoint x="-190" y="210" as="sourcePoint" />
            <mxPoint x="-30" y="210" as="targetPoint" />
          </mxGeometry>
        </mxCell>
        <mxCell id="IOxYdnQPK2HmboVUHy50-147" value="" style="endArrow=block;dashed=1;endFill=0;endSize=12;html=1;rounded=0;exitX=0;exitY=0;exitDx=0;exitDy=0;entryX=0.619;entryY=0.967;entryDx=0;entryDy=0;entryPerimeter=0;" edge="1" parent="1" source="IOxYdnQPK2HmboVUHy50-44" target="IOxYdnQPK2HmboVUHy50-35">
          <mxGeometry width="160" relative="1" as="geometry">
            <mxPoint x="-180" y="220" as="sourcePoint" />
            <mxPoint x="-20" y="220" as="targetPoint" />
          </mxGeometry>
        </mxCell>
        <mxCell id="IOxYdnQPK2HmboVUHy50-148" value="" style="endArrow=block;dashed=1;endFill=0;endSize=12;html=1;rounded=0;exitX=0;exitY=0;exitDx=0;exitDy=0;entryX=0.713;entryY=0.933;entryDx=0;entryDy=0;entryPerimeter=0;" edge="1" parent="1" source="IOxYdnQPK2HmboVUHy50-52" target="IOxYdnQPK2HmboVUHy50-35">
          <mxGeometry width="160" relative="1" as="geometry">
            <mxPoint x="-170" y="230" as="sourcePoint" />
            <mxPoint x="-10" y="230" as="targetPoint" />
          </mxGeometry>
        </mxCell>
        <mxCell id="IOxYdnQPK2HmboVUHy50-149" value="" style="endArrow=block;dashed=1;endFill=0;endSize=12;html=1;rounded=0;exitX=0;exitY=0;exitDx=0;exitDy=0;entryX=0.831;entryY=1;entryDx=0;entryDy=0;entryPerimeter=0;" edge="1" parent="1" source="IOxYdnQPK2HmboVUHy50-40" target="IOxYdnQPK2HmboVUHy50-35">
          <mxGeometry width="160" relative="1" as="geometry">
            <mxPoint x="-160" y="240" as="sourcePoint" />
            <mxPoint y="240" as="targetPoint" />
          </mxGeometry>
        </mxCell>
        <mxCell id="IOxYdnQPK2HmboVUHy50-150" value="" style="endArrow=block;dashed=1;endFill=0;endSize=12;html=1;rounded=0;exitX=0;exitY=0;exitDx=0;exitDy=0;entryX=0.944;entryY=1.1;entryDx=0;entryDy=0;entryPerimeter=0;" edge="1" parent="1" source="IOxYdnQPK2HmboVUHy50-72" target="IOxYdnQPK2HmboVUHy50-35">
          <mxGeometry width="160" relative="1" as="geometry">
            <mxPoint x="-150" y="250" as="sourcePoint" />
            <mxPoint x="10" y="250" as="targetPoint" />
          </mxGeometry>
        </mxCell>
        <mxCell id="IOxYdnQPK2HmboVUHy50-151" value="" style="endArrow=block;dashed=1;endFill=0;endSize=12;html=1;rounded=0;exitX=0;exitY=0;exitDx=0;exitDy=0;entryX=0.138;entryY=1.067;entryDx=0;entryDy=0;entryPerimeter=0;" edge="1" parent="1" source="IOxYdnQPK2HmboVUHy50-56" target="IOxYdnQPK2HmboVUHy50-35">
          <mxGeometry width="160" relative="1" as="geometry">
            <mxPoint x="-140" y="260" as="sourcePoint" />
            <mxPoint x="20" y="260" as="targetPoint" />
          </mxGeometry>
        </mxCell>
        <mxCell id="IOxYdnQPK2HmboVUHy50-154" value="" style="endArrow=block;dashed=1;endFill=0;endSize=12;html=1;rounded=0;exitX=1;exitY=1;exitDx=0;exitDy=0;entryX=0.156;entryY=1.028;entryDx=0;entryDy=0;entryPerimeter=0;" edge="1" parent="1" source="b5p1jlufVg6Kx3kPIUmd-55" target="b5p1jlufVg6Kx3kPIUmd-20">
          <mxGeometry width="160" relative="1" as="geometry">
            <mxPoint x="1360" y="250" as="sourcePoint" />
            <mxPoint x="1520" y="250" as="targetPoint" />
          </mxGeometry>
        </mxCell>
        <mxCell id="IOxYdnQPK2HmboVUHy50-155" value="" style="endArrow=block;dashed=1;endFill=0;endSize=12;html=1;rounded=0;exitX=1;exitY=0;exitDx=0;exitDy=0;entryX=0.311;entryY=1;entryDx=0;entryDy=0;entryPerimeter=0;" edge="1" parent="1" source="b5p1jlufVg6Kx3kPIUmd-29" target="b5p1jlufVg6Kx3kPIUmd-20">
          <mxGeometry width="160" relative="1" as="geometry">
            <mxPoint x="1370" y="260" as="sourcePoint" />
            <mxPoint x="1530" y="260" as="targetPoint" />
          </mxGeometry>
        </mxCell>
        <mxCell id="IOxYdnQPK2HmboVUHy50-156" value="" style="endArrow=block;dashed=1;endFill=0;endSize=12;html=1;rounded=0;exitX=1;exitY=0;exitDx=0;exitDy=0;entryX=0.533;entryY=1.056;entryDx=0;entryDy=0;entryPerimeter=0;" edge="1" parent="1" source="b5p1jlufVg6Kx3kPIUmd-54" target="b5p1jlufVg6Kx3kPIUmd-20">
          <mxGeometry width="160" relative="1" as="geometry">
            <mxPoint x="1380" y="270" as="sourcePoint" />
            <mxPoint x="1540" y="270" as="targetPoint" />
          </mxGeometry>
        </mxCell>
        <mxCell id="IOxYdnQPK2HmboVUHy50-164" value="1" style="endArrow=open;html=1;endSize=12;startArrow=diamondThin;startSize=14;startFill=0;edgeStyle=orthogonalEdgeStyle;align=left;verticalAlign=bottom;rounded=0;entryX=0;entryY=0.5;entryDx=0;entryDy=0;exitX=0;exitY=0;exitDx=0;exitDy=0;" edge="1" parent="1" source="IOxYdnQPK2HmboVUHy50-84" target="b5p1jlufVg6Kx3kPIUmd-40">
          <mxGeometry x="-1" y="20" relative="1" as="geometry">
            <mxPoint x="330" y="960" as="sourcePoint" />
            <mxPoint x="480" y="480" as="targetPoint" />
            <Array as="points">
              <mxPoint x="490" y="499" />
            </Array>
            <mxPoint y="4" as="offset" />
          </mxGeometry>
        </mxCell>
        <mxCell id="IOxYdnQPK2HmboVUHy50-165" value="" style="endArrow=block;dashed=1;endFill=0;endSize=12;html=1;rounded=0;exitX=0.617;exitY=1;exitDx=0;exitDy=0;exitPerimeter=0;entryX=0.679;entryY=0.022;entryDx=0;entryDy=0;entryPerimeter=0;" edge="1" parent="1" source="IOxYdnQPK2HmboVUHy50-4" target="IOxYdnQPK2HmboVUHy50-8">
          <mxGeometry width="160" relative="1" as="geometry">
            <mxPoint x="20" y="1100" as="sourcePoint" />
            <mxPoint x="180" y="1100" as="targetPoint" />
          </mxGeometry>
        </mxCell>
        <mxCell id="IOxYdnQPK2HmboVUHy50-168" value="" style="endArrow=block;dashed=1;endFill=0;endSize=12;html=1;rounded=0;exitX=0.934;exitY=1.017;exitDx=0;exitDy=0;exitPerimeter=0;entryX=0.934;entryY=0;entryDx=0;entryDy=0;entryPerimeter=0;" edge="1" parent="1" source="IOxYdnQPK2HmboVUHy50-87" target="IOxYdnQPK2HmboVUHy50-80">
          <mxGeometry width="160" relative="1" as="geometry">
            <mxPoint x="860" y="800" as="sourcePoint" />
            <mxPoint x="1020" y="800" as="targetPoint" />
          </mxGeometry>
        </mxCell>
        <mxCell id="IOxYdnQPK2HmboVUHy50-169" value="Use" style="endArrow=open;endSize=12;dashed=1;html=1;rounded=0;exitX=0.932;exitY=0.004;exitDx=0;exitDy=0;exitPerimeter=0;entryX=1;entryY=1;entryDx=0;entryDy=0;" edge="1" parent="1" source="IOxYdnQPK2HmboVUHy50-84" target="IOxYdnQPK2HmboVUHy50-76">
          <mxGeometry width="160" relative="1" as="geometry">
            <mxPoint x="810" y="850" as="sourcePoint" />
            <mxPoint x="919" y="470" as="targetPoint" />
          </mxGeometry>
        </mxCell>
        <mxCell id="IOxYdnQPK2HmboVUHy50-170" value="Use" style="endArrow=open;endSize=12;dashed=1;html=1;rounded=0;exitX=0;exitY=0.5;exitDx=0;exitDy=0;entryX=0;entryY=0.5;entryDx=0;entryDy=0;" edge="1" parent="1" source="IOxYdnQPK2HmboVUHy50-85" target="IOxYdnQPK2HmboVUHy50-33">
          <mxGeometry width="160" relative="1" as="geometry">
            <mxPoint x="530" y="850" as="sourcePoint" />
            <mxPoint x="-20" y="30" as="targetPoint" />
            <Array as="points">
              <mxPoint x="220" y="973" />
              <mxPoint x="-20" y="210" />
              <mxPoint x="-20" y="60" />
            </Array>
          </mxGeometry>
        </mxCell>
        <mxCell id="IOxYdnQPK2HmboVUHy50-171" value="Use" style="endArrow=open;endSize=12;dashed=1;html=1;rounded=0;exitX=1;exitY=0.5;exitDx=0;exitDy=0;entryX=0;entryY=0;entryDx=0;entryDy=0;" edge="1" parent="1" source="IOxYdnQPK2HmboVUHy50-44" target="IOxYdnQPK2HmboVUHy50-19">
          <mxGeometry width="160" relative="1" as="geometry">
            <mxPoint x="440" y="400" as="sourcePoint" />
            <mxPoint x="600" y="400" as="targetPoint" />
          </mxGeometry>
        </mxCell>
        <mxCell id="IOxYdnQPK2HmboVUHy50-172" value="Use" style="endArrow=open;endSize=12;dashed=1;html=1;rounded=0;exitX=1;exitY=0;exitDx=0;exitDy=0;entryX=0;entryY=0.25;entryDx=0;entryDy=0;" edge="1" parent="1" source="IOxYdnQPK2HmboVUHy50-48" target="IOxYdnQPK2HmboVUHy50-19">
          <mxGeometry width="160" relative="1" as="geometry">
            <mxPoint x="450" y="410" as="sourcePoint" />
            <mxPoint x="610" y="410" as="targetPoint" />
          </mxGeometry>
        </mxCell>
        <mxCell id="IOxYdnQPK2HmboVUHy50-173" value="Use" style="endArrow=open;endSize=12;dashed=1;html=1;rounded=0;exitX=1;exitY=0;exitDx=0;exitDy=0;entryX=0;entryY=0.5;entryDx=0;entryDy=0;" edge="1" parent="1" source="IOxYdnQPK2HmboVUHy50-64" target="IOxYdnQPK2HmboVUHy50-19">
          <mxGeometry width="160" relative="1" as="geometry">
            <mxPoint x="460" y="420" as="sourcePoint" />
            <mxPoint x="620" y="420" as="targetPoint" />
          </mxGeometry>
        </mxCell>
        <mxCell id="IOxYdnQPK2HmboVUHy50-174" value="Use" style="endArrow=open;endSize=12;dashed=1;html=1;rounded=0;exitX=1;exitY=0;exitDx=0;exitDy=0;entryX=-0.007;entryY=0.218;entryDx=0;entryDy=0;entryPerimeter=0;" edge="1" parent="1" source="IOxYdnQPK2HmboVUHy50-68" target="IOxYdnQPK2HmboVUHy50-22">
          <mxGeometry width="160" relative="1" as="geometry">
            <mxPoint x="470" y="430" as="sourcePoint" />
            <mxPoint x="630" y="430" as="targetPoint" />
          </mxGeometry>
        </mxCell>
        <mxCell id="IOxYdnQPK2HmboVUHy50-175" value="Use" style="endArrow=open;endSize=12;dashed=1;html=1;rounded=0;exitX=1;exitY=0;exitDx=0;exitDy=0;entryX=0;entryY=0.5;entryDx=0;entryDy=0;" edge="1" parent="1" source="IOxYdnQPK2HmboVUHy50-56" target="IOxYdnQPK2HmboVUHy50-22">
          <mxGeometry width="160" relative="1" as="geometry">
            <mxPoint x="480" y="440" as="sourcePoint" />
            <mxPoint x="640" y="440" as="targetPoint" />
          </mxGeometry>
        </mxCell>
        <mxCell id="IOxYdnQPK2HmboVUHy50-176" value="Use" style="endArrow=open;endSize=12;dashed=1;html=1;rounded=0;exitX=1;exitY=0;exitDx=0;exitDy=0;entryX=0.002;entryY=1.051;entryDx=0;entryDy=0;entryPerimeter=0;" edge="1" parent="1" source="IOxYdnQPK2HmboVUHy50-60" target="IOxYdnQPK2HmboVUHy50-22">
          <mxGeometry width="160" relative="1" as="geometry">
            <mxPoint x="490" y="450" as="sourcePoint" />
            <mxPoint x="440" y="340" as="targetPoint" />
          </mxGeometry>
        </mxCell>
        <mxCell id="IOxYdnQPK2HmboVUHy50-177" value="Use" style="endArrow=open;endSize=12;dashed=1;html=1;rounded=0;exitX=1;exitY=0;exitDx=0;exitDy=0;entryX=0.75;entryY=0;entryDx=0;entryDy=0;" edge="1" parent="1" source="IOxYdnQPK2HmboVUHy50-36" target="IOxYdnQPK2HmboVUHy50-19">
          <mxGeometry width="160" relative="1" as="geometry">
            <mxPoint x="550" y="120" as="sourcePoint" />
            <mxPoint x="710" y="120" as="targetPoint" />
          </mxGeometry>
        </mxCell>
        <mxCell id="IOxYdnQPK2HmboVUHy50-178" value="Use" style="endArrow=open;endSize=12;dashed=1;html=1;rounded=0;exitX=1;exitY=0;exitDx=0;exitDy=0;entryX=0.5;entryY=0;entryDx=0;entryDy=0;" edge="1" parent="1" source="IOxYdnQPK2HmboVUHy50-72" target="IOxYdnQPK2HmboVUHy50-19">
          <mxGeometry width="160" relative="1" as="geometry">
            <mxPoint x="560" y="130" as="sourcePoint" />
            <mxPoint x="720" y="130" as="targetPoint" />
          </mxGeometry>
        </mxCell>
        <mxCell id="IOxYdnQPK2HmboVUHy50-179" value="Use" style="endArrow=open;endSize=12;dashed=1;html=1;rounded=0;exitX=1;exitY=0;exitDx=0;exitDy=0;" edge="1" parent="1" source="IOxYdnQPK2HmboVUHy50-40">
          <mxGeometry width="160" relative="1" as="geometry">
            <mxPoint x="570" y="140" as="sourcePoint" />
            <mxPoint x="520" y="230" as="targetPoint" />
          </mxGeometry>
        </mxCell>
        <mxCell id="IOxYdnQPK2HmboVUHy50-180" value="Use" style="endArrow=open;endSize=12;dashed=1;html=1;rounded=0;exitX=1;exitY=0;exitDx=0;exitDy=0;entryX=0;entryY=0;entryDx=0;entryDy=0;" edge="1" parent="1" source="IOxYdnQPK2HmboVUHy50-52" target="IOxYdnQPK2HmboVUHy50-19">
          <mxGeometry width="160" relative="1" as="geometry">
            <mxPoint x="580" y="150" as="sourcePoint" />
            <mxPoint x="740" y="150" as="targetPoint" />
          </mxGeometry>
        </mxCell>
        <mxCell id="IOxYdnQPK2HmboVUHy50-183" value="Use" style="endArrow=open;endSize=12;dashed=1;html=1;rounded=0;exitX=0.75;exitY=0;exitDx=0;exitDy=0;entryX=0;entryY=0;entryDx=0;entryDy=0;" edge="1" parent="1" source="IOxYdnQPK2HmboVUHy50-19" target="b5p1jlufVg6Kx3kPIUmd-5">
          <mxGeometry width="160" relative="1" as="geometry">
            <mxPoint x="590" y="120" as="sourcePoint" />
            <mxPoint x="750" y="120" as="targetPoint" />
            <Array as="points">
              <mxPoint x="670" y="40" />
              <mxPoint x="930" y="40" />
            </Array>
          </mxGeometry>
        </mxCell>
        <mxCell id="IOxYdnQPK2HmboVUHy50-184" value="Use" style="endArrow=open;endSize=12;dashed=1;html=1;rounded=0;exitX=0.82;exitY=0;exitDx=0;exitDy=0;exitPerimeter=0;entryX=0;entryY=0.111;entryDx=0;entryDy=0;entryPerimeter=0;" edge="1" parent="1" source="IOxYdnQPK2HmboVUHy50-19" target="b5p1jlufVg6Kx3kPIUmd-9">
          <mxGeometry width="160" relative="1" as="geometry">
            <mxPoint x="600" y="130" as="sourcePoint" />
            <mxPoint x="760" y="130" as="targetPoint" />
            <Array as="points">
              <mxPoint x="684" y="50" />
              <mxPoint x="950" y="50" />
            </Array>
          </mxGeometry>
        </mxCell>
        <mxCell id="IOxYdnQPK2HmboVUHy50-185" value="Use" style="endArrow=open;endSize=12;dashed=1;html=1;rounded=0;exitX=0.905;exitY=-0.067;exitDx=0;exitDy=0;exitPerimeter=0;entryX=0;entryY=0;entryDx=0;entryDy=0;" edge="1" parent="1" source="IOxYdnQPK2HmboVUHy50-19" target="b5p1jlufVg6Kx3kPIUmd-13">
          <mxGeometry width="160" relative="1" as="geometry">
            <mxPoint x="610" y="140" as="sourcePoint" />
            <mxPoint x="770" y="140" as="targetPoint" />
            <Array as="points">
              <mxPoint x="700" y="60" />
              <mxPoint x="970" y="60" />
            </Array>
          </mxGeometry>
        </mxCell>
        <mxCell id="IOxYdnQPK2HmboVUHy50-186" value="Use" style="endArrow=open;endSize=12;dashed=1;html=1;rounded=0;exitX=1;exitY=0;exitDx=0;exitDy=0;entryX=0;entryY=0;entryDx=0;entryDy=0;" edge="1" parent="1" source="IOxYdnQPK2HmboVUHy50-19" target="b5p1jlufVg6Kx3kPIUmd-1">
          <mxGeometry width="160" relative="1" as="geometry">
            <mxPoint x="680" y="210" as="sourcePoint" />
            <mxPoint x="1060" y="234" as="targetPoint" />
            <Array as="points">
              <mxPoint x="720" y="70" />
              <mxPoint x="990" y="70" />
            </Array>
          </mxGeometry>
        </mxCell>
      </root>
    </mxGraphModel>
  </diagram>
</mxfile>
